<svg width="118" height="118" viewBox="0 0 118 118" fill="none" xmlns="http://www.w3.org/2000/svg">
<g filter="url(#filter0_d_401_405)">
<circle cx="59" cy="55" r="39" fill="white"/>
</g>
<path d="M49.6339 68.1228C49.6339 68.9543 49.8804 69.7672 50.3424 70.4585C50.8044 71.1499 51.461 71.6888 52.2292 72.007C52.9974 72.3252 53.8427 72.4084 54.6582 72.2462C55.4737 72.084 56.2228 71.6836 56.8108 71.0956C57.3988 70.5077 57.7992 69.7586 57.9614 68.943C58.1236 68.1275 58.0404 67.2822 57.7221 66.514C57.4039 65.7458 56.8651 65.0892 56.1737 64.6272C55.4824 64.1653 54.6695 63.9187 53.838 63.9187C52.7234 63.92 51.6548 64.3633 50.8667 65.1515C50.0785 65.9396 49.6352 67.0082 49.6339 68.1228ZM56.1137 68.1228C56.1137 68.5729 55.9802 69.0129 55.7301 69.3871C55.4801 69.7613 55.1247 70.053 54.7089 70.2253C54.2931 70.3975 53.8355 70.4426 53.3941 70.3548C52.9526 70.267 52.5472 70.0502 52.2289 69.732C51.9107 69.4137 51.6939 69.0082 51.6061 68.5668C51.5183 68.1254 51.5634 67.6678 51.7356 67.252C51.9078 66.8362 52.1995 66.4808 52.5737 66.2307C52.948 65.9807 53.3879 65.8472 53.838 65.8472C54.4416 65.8472 55.0204 66.087 55.4471 66.5137C55.8739 66.9405 56.1137 67.5193 56.1137 68.1228Z" fill="#0587C7"/>
<path d="M67.5113 63.9187C66.6798 63.9187 65.867 64.1653 65.1756 64.6272C64.4842 65.0892 63.9454 65.7458 63.6272 66.514C63.309 67.2822 63.2257 68.1275 63.3879 68.943C63.5502 69.7586 63.9506 70.5077 64.5385 71.0956C65.1265 71.6836 65.8756 72.084 66.6911 72.2462C67.5066 72.4084 68.352 72.3252 69.1202 72.007C69.8884 71.6888 70.545 71.1499 71.0069 70.4585C71.4689 69.7672 71.7155 68.9543 71.7155 68.1228C71.7142 67.0082 71.2708 65.9396 70.4827 65.1515C69.6945 64.3633 68.6259 63.92 67.5113 63.9187ZM67.5113 70.3985C67.0612 70.3985 66.6213 70.265 66.247 70.015C65.8728 69.7649 65.5811 69.4095 65.4089 68.9937C65.2367 68.5779 65.1916 68.1203 65.2794 67.6789C65.3672 67.2375 65.5839 66.832 65.9022 66.5137C66.2204 66.1955 66.6259 65.9787 67.0674 65.8909C67.5088 65.8031 67.9663 65.8482 68.3822 66.0204C68.798 66.1927 69.1534 66.4843 69.4034 66.8586C69.6535 67.2328 69.7869 67.6728 69.7869 68.1228C69.7857 68.7255 69.5453 69.3031 69.1187 69.7288C68.6921 70.1546 68.114 70.3937 67.5113 70.3937V70.3985Z" fill="#0587C7"/>
<path d="M41.014 38.7998C40.9706 39.0517 41.029 39.3105 41.1764 39.5194C41.3238 39.7282 41.548 39.87 41.7998 39.9136L43.0871 40.1402C44.1419 40.32 45.117 40.8168 45.8826 41.5643C46.6483 42.3119 47.1682 43.2748 47.3732 44.325L49.9189 57.0628C50.2244 58.5935 51.0509 59.9711 52.2579 60.9609C53.4648 61.9507 54.9775 62.4916 56.5385 62.4916H66.6294C68.1568 62.4967 69.6404 61.9814 70.8358 61.0305C72.0312 60.0796 72.867 58.7499 73.2056 57.2605L75.4089 47.7095C75.4416 47.5682 75.4419 47.4212 75.4098 47.2797C75.3778 47.1381 75.3142 47.0057 75.2238 46.8921C75.1335 46.7786 75.0186 46.6869 74.8879 46.6239C74.7571 46.5609 74.6139 46.5282 74.4688 46.5283H49.779L49.2632 43.949C48.9833 42.5162 48.2739 41.2026 47.2292 40.1829C46.1845 39.1632 44.8541 38.4857 43.415 38.2406L42.1277 38.014C41.8758 37.9706 41.617 38.029 41.4082 38.1764C41.1993 38.3238 41.0576 38.548 41.014 38.7998ZM73.2586 48.4424L71.3301 56.8121C71.0849 57.874 70.4872 58.8215 69.6344 59.5C68.7816 60.1786 67.724 60.5482 66.6342 60.5486H56.5385C55.4262 60.5499 54.3477 60.1666 53.4857 59.4637C52.6237 58.7607 52.0313 57.7814 51.8088 56.6916L50.1647 48.452L73.2586 48.4424Z" fill="#0587C7"/>
<defs>
<filter id="filter0_d_401_405" x="0" y="0" width="118" height="118" filterUnits="userSpaceOnUse" color-interpolation-filters="sRGB">
<feFlood flood-opacity="0" result="BackgroundImageFix"/>
<feColorMatrix in="SourceAlpha" type="matrix" values="0 0 0 0 0 0 0 0 0 0 0 0 0 0 0 0 0 0 127 0" result="hardAlpha"/>
<feOffset dy="4"/>
<feGaussianBlur stdDeviation="10"/>
<feComposite in2="hardAlpha" operator="out"/>
<feColorMatrix type="matrix" values="0 0 0 0 0 0 0 0 0 0 0 0 0 0 0 0 0 0 0.06 0"/>
<feBlend mode="normal" in2="BackgroundImageFix" result="effect1_dropShadow_401_405"/>
<feBlend mode="normal" in="SourceGraphic" in2="effect1_dropShadow_401_405" result="shape"/>
</filter>
</defs>
</svg>
