<svg width="30" height="30" viewBox="0 0 30 30" fill="none" xmlns="http://www.w3.org/2000/svg">
<path d="M8.04248 25.5709C8.04248 26.2491 8.2436 26.9121 8.62042 27.4761C8.99723 28.04 9.53281 28.4795 10.1594 28.7391C10.786 28.9986 11.4755 29.0666 12.1408 28.9342C12.806 28.8019 13.417 28.4753 13.8966 27.9957C14.3762 27.5161 14.7028 26.9051 14.8351 26.2399C14.9674 25.5747 14.8995 24.8852 14.64 24.2585C14.3804 23.6319 13.9409 23.0963 13.3769 22.7195C12.813 22.3427 12.15 22.1416 11.4717 22.1416C10.5626 22.1426 9.69092 22.5043 9.04804 23.1472C8.40515 23.79 8.04352 24.6617 8.04248 25.5709ZM13.3279 25.5709C13.3279 25.938 13.2191 26.2969 13.0151 26.6021C12.8112 26.9074 12.5213 27.1453 12.1821 27.2858C11.8429 27.4263 11.4697 27.463 11.1096 27.3914C10.7495 27.3198 10.4188 27.143 10.1592 26.8834C9.89961 26.6238 9.72283 26.2931 9.6512 25.933C9.57958 25.5729 9.61634 25.1997 9.75683 24.8605C9.89732 24.5213 10.1352 24.2314 10.4405 24.0275C10.7457 23.8235 11.1046 23.7147 11.4717 23.7147C11.964 23.7147 12.4362 23.9102 12.7843 24.2583C13.1324 24.6064 13.3279 25.0786 13.3279 25.5709Z" fill="#516975" stroke="#516975" stroke-width="0.2"/>
<path d="M22.6243 22.1416C21.9461 22.1416 21.2831 22.3427 20.7191 22.7195C20.1552 23.0963 19.7157 23.6319 19.4561 24.2585C19.1966 24.8852 19.1286 25.5747 19.261 26.2399C19.3933 26.9051 19.7199 27.5161 20.1995 27.9957C20.6791 28.4753 21.2901 28.8019 21.9553 28.9342C22.6205 29.0666 23.31 28.9986 23.9367 28.7391C24.5633 28.4795 25.0988 28.04 25.4757 27.4761C25.8525 26.9121 26.0536 26.2491 26.0536 25.5709C26.0526 24.6617 25.6909 23.79 25.048 23.1472C24.4052 22.5043 23.5335 22.1426 22.6243 22.1416ZM22.6243 27.4271C22.2572 27.4271 21.8983 27.3182 21.5931 27.1142C21.2878 26.9103 21.0499 26.6204 20.9094 26.2812C20.7689 25.942 20.7322 25.5688 20.8038 25.2087C20.8754 24.8487 21.0522 24.5179 21.3118 24.2583C21.5714 23.9987 21.9021 23.8219 22.2622 23.7503C22.6223 23.6787 22.9955 23.7155 23.3347 23.856C23.6738 23.9964 23.9637 24.2344 24.1677 24.5396C24.3717 24.8449 24.4805 25.2037 24.4805 25.5709C24.4795 26.0625 24.2835 26.5336 23.9355 26.8809C23.5875 27.2281 23.1159 27.4231 22.6243 27.4231V27.4271Z" fill="#516975" stroke="#516975" stroke-width="0.2"/>
<path d="M1.0114 1.65242C0.976036 1.85788 1.02369 2.06898 1.14389 2.23932C1.26408 2.40966 1.447 2.52532 1.65242 2.56086L2.70244 2.7457C3.56284 2.89243 4.35819 3.29762 4.98271 3.90738C5.60722 4.51714 6.0313 5.30258 6.19856 6.15923L8.27499 16.5493C8.52418 17.7979 9.19841 18.9215 10.1829 19.7289C11.1674 20.5363 12.4013 20.9775 13.6745 20.9774H21.9055C23.1514 20.9816 24.3616 20.5613 25.3367 19.7857C26.3117 19.01 26.9935 17.9254 27.2696 16.7105L29.0669 8.91995C29.0935 8.80461 29.0938 8.68475 29.0676 8.5693C29.0415 8.45385 28.9896 8.34579 28.9159 8.25317C28.8422 8.16055 28.7485 8.08577 28.6419 8.03439C28.5352 7.98302 28.4184 7.95637 28.3 7.95645H8.16095L7.74015 5.85249C7.51187 4.68379 6.93318 3.6123 6.08105 2.78054C5.22891 1.94878 4.14373 1.39617 2.96986 1.19624L1.91984 1.0114C1.71438 0.976036 1.50329 1.02369 1.33295 1.14389C1.1626 1.26408 1.04695 1.447 1.0114 1.65242ZM27.3129 9.51771L25.7399 16.3448C25.5398 17.2109 25.0523 17.9838 24.3567 18.5373C23.661 19.0908 22.7984 19.3923 21.9095 19.3926H13.6745C12.7672 19.3937 11.8875 19.081 11.1844 18.5076C10.4813 17.9343 9.99804 17.1354 9.81659 16.2465L8.47556 9.52557L27.3129 9.51771Z" fill="#516975" stroke="#516975" stroke-width="0.2"/>
</svg>
