<svg width="122" height="130" viewBox="0 0 122 130" fill="none" xmlns="http://www.w3.org/2000/svg">
<g filter="url(#filter0_d_401_275)">
<circle cx="61" cy="37" r="37" fill="white"/>
</g>
<path d="M48.2998 47.2906L58.3617 37.2288L48.2998 27.1669C48.1091 26.979 47.9574 26.7552 47.8535 26.5083C47.7497 26.2615 47.6958 25.9965 47.6948 25.7288C47.6939 25.461 47.746 25.1957 47.8481 24.9481C47.9502 24.7006 48.1004 24.4757 48.2898 24.2864C48.4793 24.0972 48.7044 23.9473 48.952 23.8455C49.1997 23.7437 49.4651 23.6919 49.7329 23.6931C50.0006 23.6944 50.2655 23.7486 50.5122 23.8528C50.759 23.9569 50.9826 24.1088 51.1703 24.2998L61.2288 34.3617L71.2906 24.2998C71.4783 24.1088 71.702 23.9569 71.9487 23.8528C72.1954 23.7486 72.4603 23.6944 72.7281 23.6931C72.9959 23.6919 73.2612 23.7437 73.5089 23.8455C73.7566 23.9473 73.9816 24.0972 74.1711 24.2864C74.3606 24.4757 74.5107 24.7006 74.6128 24.9481C74.7149 25.1957 74.767 25.461 74.7661 25.7288C74.7652 25.9965 74.7112 26.2615 74.6074 26.5083C74.5036 26.7552 74.3519 26.979 74.1611 27.1669L64.0959 37.2288L74.1577 47.2906C74.3485 47.4785 74.5002 47.7024 74.604 47.9492C74.7078 48.1961 74.7618 48.461 74.7627 48.7288C74.7636 48.9966 74.7115 49.2619 74.6094 49.5094C74.5073 49.757 74.3572 49.9819 74.1677 50.1711C73.9783 50.3604 73.7532 50.5102 73.5055 50.612C73.2579 50.7139 72.9925 50.7657 72.7247 50.7644C72.4569 50.7632 72.192 50.7089 71.9453 50.6048C71.6986 50.5007 71.4749 50.3487 71.2872 50.1577L61.2288 40.0959L51.1669 50.1577C50.7857 50.5333 50.2714 50.743 49.7363 50.7411C49.2011 50.7392 48.6884 50.526 48.3097 50.1478C47.9311 49.7696 47.7172 49.2571 47.7148 48.7219C47.7123 48.1868 47.9213 47.6723 48.2965 47.2906H48.2998Z" fill="black"/>
<defs>
<filter id="filter0_d_401_275" x="0" y="0" width="122" height="130" filterUnits="userSpaceOnUse" color-interpolation-filters="sRGB">
<feFlood flood-opacity="0" result="BackgroundImageFix"/>
<feColorMatrix in="SourceAlpha" type="matrix" values="0 0 0 0 0 0 0 0 0 0 0 0 0 0 0 0 0 0 127 0" result="hardAlpha"/>
<feOffset dy="32"/>
<feGaussianBlur stdDeviation="12"/>
<feComposite in2="hardAlpha" operator="out"/>
<feColorMatrix type="matrix" values="0 0 0 0 0 0 0 0 0 0 0 0 0 0 0 0 0 0 0.15 0"/>
<feBlend mode="normal" in2="BackgroundImageFix" result="effect1_dropShadow_401_275"/>
<feBlend mode="normal" in="SourceGraphic" in2="effect1_dropShadow_401_275" result="shape"/>
</filter>
</defs>
</svg>
