<svg width="94" height="17" viewBox="0 0 94 17" fill="none" xmlns="http://www.w3.org/2000/svg">
<g clip-path="url(#clip0_401_939)">
<path fill-rule="evenodd" clip-rule="evenodd" d="M79.4884 10.5906C78.7847 10.5093 78.0922 10.6089 78.2004 9.64341C78.3072 8.70143 78.6546 8.30511 79.6083 8.28539C80.3189 8.26848 81.0306 8.27646 81.7454 8.28539C82.4099 8.29337 82.7783 8.6155 82.6599 9.31424C82.3279 11.2639 82.0168 13.2169 81.592 15.1431C81.4987 15.562 81.0236 16.0884 80.6183 16.211C78.6989 16.7951 76.7175 17.0919 74.7291 16.6317C72.4707 16.1067 71.1789 14.3153 71.4266 11.9016C71.6224 10.0261 71.9307 8.1431 72.4082 6.32583C73.2429 3.151 75.6207 1.3835 78.8612 1.38819C79.847 1.3896 80.837 1.5671 81.8172 1.70234C82.4995 1.79673 82.7989 2.20808 82.6683 2.91715C82.479 3.95727 81.9902 4.47662 81.2311 4.40196C80.3824 4.31884 79.5364 4.16717 78.6887 4.14557C77.1978 4.10894 76.0749 4.76494 75.6892 6.19951C75.1968 8.03792 74.8555 9.94019 74.6563 11.8382C74.5071 13.2545 75.2742 13.9311 76.6891 14.0345C78.7815 14.1857 78.9409 14.0617 79.2529 12.0364C79.3247 11.5875 79.3998 11.14 79.4884 10.5906Z" fill="#282828"/>
<path fill-rule="evenodd" clip-rule="evenodd" d="M17.853 9.64527C18.2554 8.40771 17.6744 7.7978 17.255 7.53061C16.6625 7.15011 15.6978 7.38605 15.1711 7.91857C14.9235 8.1727 14.6654 8.49957 14.5923 8.83437C14.3232 10.0817 14.0528 11.3389 13.9436 12.6063C13.9071 13.046 14.2328 13.7906 14.5772 13.9315C15.0614 14.1287 15.7722 14.0243 16.2797 13.7986C16.6401 13.6368 16.9549 13.1005 17.0686 12.6697C17.3834 11.4927 17.5597 11.0801 17.853 9.64527ZM20.7606 9.58465C20.5386 10.4963 20.2905 12.1745 19.7181 13.723C18.7757 16.2765 15.6352 17.5215 13.1538 16.4998C11.7094 15.9067 10.7432 14.5078 10.9191 12.7681C11.0812 11.1439 11.3759 9.48719 11.9145 7.95634C12.8025 5.42621 15.7489 4.16208 18.2691 5.01726C19.8798 5.5647 21.28 7.24896 20.7606 9.58465Z" fill="#282828"/>
<path fill-rule="evenodd" clip-rule="evenodd" d="M90.9829 9.64527C91.3858 8.40771 90.8057 7.7978 90.3863 7.53061C89.7911 7.15011 88.8272 7.38605 88.3032 7.91857C88.0528 8.1727 87.7975 8.49957 87.7248 8.83437C87.4517 10.0817 87.1821 11.3389 87.0734 12.6063C87.0378 13.046 87.3635 13.7906 87.707 13.9315C88.1917 14.1287 88.9035 14.0243 89.4096 13.7986C89.7737 13.6368 90.0862 13.1005 90.2008 12.6697C90.5133 11.4927 90.6896 11.0801 90.9829 9.64527ZM93.8906 9.58465C93.6686 10.4963 93.4219 12.1745 92.8486 13.723C91.9066 16.2765 88.7659 17.5215 86.2849 16.4998C84.8409 15.9067 83.8747 14.5078 84.0478 12.7681C84.2109 11.1439 84.5079 9.48719 85.0433 7.95634C85.9309 5.42621 88.8788 4.16208 91.4005 5.01726C93.0103 5.5647 94.4078 7.24896 93.8906 9.58465Z" fill="#282828"/>
<path fill-rule="evenodd" clip-rule="evenodd" d="M7.98501 1.38818C8.88172 1.52931 9.77516 1.67369 10.6681 1.81574C11.4143 1.93544 11.6772 2.37092 11.5192 3.09469C11.2712 4.20597 10.8522 4.6163 10.0613 4.51477C9.24618 4.40811 8.4301 4.25022 7.61309 4.22833C6.04571 4.18502 4.95745 4.81331 4.55338 6.29067C4.06168 8.08801 3.71679 9.94542 3.5299 11.8019C3.37284 13.3314 4.26395 14.1316 5.81082 14.1144C6.5733 14.1074 7.33018 13.9243 8.0922 13.8424C8.61559 13.7855 9.20982 13.5932 9.44425 14.3361C9.72436 15.2275 9.48433 16.1199 8.78943 16.3197C6.73502 16.9047 4.64659 17.1743 2.60942 16.2745C0.998703 15.5633 0.0721673 13.8764 0.294014 11.896C0.493956 10.1191 0.761476 8.33579 1.19631 6.60785C2.06972 3.13894 4.38233 1.45432 7.98501 1.38818Z" fill="#282828"/>
<path fill-rule="evenodd" clip-rule="evenodd" d="M35.3493 9.9587C36.1351 9.78103 36.8167 9.69125 37.4495 9.46422C38.2018 9.19443 38.4866 8.49267 38.1878 7.90607C37.9374 7.41488 37.1651 7.24473 36.5675 7.58033C35.7538 8.03721 35.5037 8.8419 35.3493 9.9587ZM35.2049 12.1157C35.0167 13.6527 35.455 14.197 36.9606 14.1542C37.5077 14.1392 38.0543 14.0315 38.5932 13.9272C39.0797 13.8355 39.5951 13.5888 39.8975 14.2257C40.1905 14.8419 39.9503 15.9751 39.4543 16.2538C38.3873 16.8541 35.1056 17.318 33.5724 16.0578C32.4161 15.1051 32.0505 13.8172 32.2067 12.3794C32.3412 11.1281 32.5443 9.86704 32.8737 8.65906C33.618 5.91924 35.9609 4.40479 38.6455 4.81842C40.0988 5.04122 41.2841 6.20643 41.4461 7.57234C41.6478 9.25835 40.9424 10.6384 39.3794 11.1592C38.0588 11.5991 36.661 11.7932 35.2049 12.1157Z" fill="#282828"/>
<path fill-rule="evenodd" clip-rule="evenodd" d="M46.8543 14.1999C47.283 14.1287 47.7103 14.0467 48.1403 13.9905C48.6449 13.9268 49.112 13.8865 49.2718 14.6125C49.4817 15.5647 49.354 16.2509 48.7137 16.4452C47.1727 16.9169 45.6036 17.086 44.0747 16.3937C42.7146 15.7773 41.9952 14.4495 42.1707 12.6646C42.3046 11.3049 42.5226 9.93354 42.8771 8.62024C43.596 5.96179 45.6701 4.55482 48.356 4.77307C48.8709 4.8157 49.3808 4.92342 49.8903 5.00117C50.4377 5.0836 50.8356 5.33605 50.7824 5.99176C50.7092 6.95894 50.1935 7.62636 49.5165 7.60341C48.92 7.58234 48.3256 7.45213 47.73 7.43995C46.6905 7.42028 46.0318 7.85024 45.7728 8.8858C45.4728 10.0993 45.2491 11.348 45.1267 12.5939C45.0124 13.732 45.5741 14.1737 46.8543 14.1999Z" fill="#282828"/>
<path fill-rule="evenodd" clip-rule="evenodd" d="M53.589 6.77414C52.6619 6.84268 52.0855 6.67984 52.1181 5.71614C52.164 4.40605 53.2013 4.85547 53.9678 4.68343C54.1053 3.99389 54.2231 3.28134 54.3919 2.5803C54.6018 1.71503 56.5242 1.01767 57.1966 1.60601C57.4306 1.80933 57.4817 2.31442 57.4547 2.67046C57.4032 3.33102 57.2353 3.98377 57.1228 4.59465C57.685 4.99209 58.7493 4.26897 58.7644 5.45532C58.7772 6.43466 58.5795 6.56852 56.7058 6.87626C56.2297 9.4762 55.7507 12.0991 55.2647 14.717C55.042 15.9158 53.4921 16.609 52.4841 15.8974C52.2302 15.718 52.1143 15.1485 52.1701 14.7929C52.4344 13.073 52.7786 11.3631 53.0916 9.64594C53.2533 8.73698 53.4056 7.82479 53.589 6.77414Z" fill="#282828"/>
<path fill-rule="evenodd" clip-rule="evenodd" d="M22.8229 16.1844C21.5358 16.183 21.3997 15.9929 21.6234 14.6773C22.3642 10.3309 23.092 5.98348 23.8189 1.64167C24.0089 0.50406 25.5358 -0.33964 26.5332 0.220818C26.7429 0.336247 26.893 0.846177 26.8449 1.13684C26.1518 5.37017 25.4199 9.60073 24.6998 13.8355C24.645 14.1419 24.6055 14.4497 24.543 14.7524C24.2874 15.9976 24.0628 16.1844 22.8229 16.1844Z" fill="#282828"/>
<path fill-rule="evenodd" clip-rule="evenodd" d="M28.1566 16.1844C26.8322 16.1844 26.714 16.017 26.953 14.6106C27.684 10.321 28.4069 6.03087 29.1253 1.74354C29.3297 0.519315 30.7714 -0.339634 31.8349 0.21523C32.0451 0.32509 32.2109 0.836381 32.1646 1.12053C31.5383 4.99346 30.8712 8.86175 30.2148 12.7361C30.1007 13.404 29.9946 14.0729 29.8625 14.7367C29.6136 15.9897 29.376 16.183 28.1566 16.1844Z" fill="#282828"/>
<path fill-rule="evenodd" clip-rule="evenodd" d="M64.9071 5.67747C64.9847 4.97849 64.4967 4.36206 63.6958 4.36206C63.0125 4.36206 62.4655 4.8347 62.4655 5.47153C62.4655 6.10883 62.8172 6.49984 63.1104 6.9312L63.4613 7.38343C63.4613 7.38343 64.7502 6.82823 64.9071 5.67747ZM62.3482 14.2467C63.813 14.2467 64.4967 13.2193 64.4967 13.2193L62.5043 10.3626C62.5043 10.3626 61.0399 10.877 60.8645 12.3357C60.7076 13.5268 61.3719 14.2467 62.3482 14.2467ZM61.2934 8.73966V8.67797L60.9624 8.24569C60.317 7.38343 59.9463 6.60188 59.9851 5.49287C60.0433 3.82773 61.196 2.06055 63.9889 2.06055C65.9425 2.06055 67.2896 3.33468 67.2896 5.30734C67.2896 7.71182 64.7114 9.14969 64.7114 9.14969L66.2348 11.1024C66.5284 10.6706 66.8435 10.0885 67.0375 9.59543C67.2142 9.16407 67.339 8.81295 67.8953 8.9034C68.4511 8.99338 69.1454 9.58197 69.1454 9.58197C69.55 9.91778 69.379 10.28 69.2812 10.5277C68.6764 11.986 67.6996 13.1367 67.6996 13.1785L69.0272 14.7592C69.223 15.0069 69.3508 15.1358 68.8518 15.7059C68.8518 15.7059 68.2488 16.4151 67.8754 16.6099C67.6599 16.7212 67.3284 16.8771 67.0556 16.5487L66.0404 15.3149C66.0404 15.3149 64.2816 16.8771 61.743 16.8566C59.4773 16.8362 57.8569 15.0885 58.1302 12.9521C58.5014 9.992 61.2934 8.73966 61.2934 8.73966Z" fill="#0587C7"/>
</g>
<defs>
<clipPath id="clip0_401_939">
<rect width="94" height="17" fill="white"/>
</clipPath>
</defs>
</svg>
