<svg width="28" height="25" viewBox="0 0 28 25" fill="none" xmlns="http://www.w3.org/2000/svg">
<path d="M8.49155 2.42498C9.91562 2.42498 11.3458 2.9415 12.5051 3.99459L14.1187 5.45998L15.7318 3.99459C16.892 2.9415 18.3219 2.42529 19.7459 2.42529C21.4597 2.42529 23.1643 3.17333 24.3755 4.63416C26.5937 7.3082 26.3196 11.3583 23.7641 13.6796L23.4656 13.9512L14.1187 22.441L4.77155 13.9506L4.47309 13.679C1.91731 11.3577 1.6444 7.3076 3.86223 4.63355C5.07407 3.17272 6.77773 2.42468 8.49155 2.42498ZM8.49155 1C6.31901 0.999696 4.25679 1.98351 2.83417 3.69987C1.52246 5.28072 0.878218 7.30091 1.01903 9.38916C1.16013 11.4774 2.06944 13.3831 3.58003 14.7549L3.87907 15.0268L13.2266 23.5168C13.482 23.7496 13.8011 23.8656 14.1187 23.8656C14.4364 23.8656 14.7557 23.7493 15.0109 23.5168L24.3581 15.0265L24.656 14.7555C26.1672 13.3828 27.0773 11.4774 27.2182 9.38916C27.359 7.30091 26.7141 5.28072 25.403 3.69957C23.9804 1.98412 21.9182 1 19.7456 1C17.9438 1 16.2021 1.6812 14.8393 2.9178L14.1187 3.57347L13.3981 2.91871C12.0359 1.6815 10.2933 1 8.49155 1Z" fill="#516975" stroke="#516975" stroke-width="0.7"/>
</svg>
