<svg width="16" height="13" viewBox="0 0 16 13" fill="none" xmlns="http://www.w3.org/2000/svg">
<path d="M15.9789 6.00414C15.9315 5.86039 15.8477 5.7676 15.7274 5.67844C15.4796 5.49284 15.2336 5.30724 14.9858 5.12165C14.6688 4.8851 14.3535 4.64674 14.0365 4.40837C13.9909 4.3738 13.9454 4.33923 13.8998 4.30466C13.6684 4.12998 13.4352 3.9553 13.2038 3.78244C12.4858 3.24203 11.7679 2.70343 11.05 2.16302C10.4304 1.69721 9.80908 1.22958 9.18955 0.763766C8.89071 0.538139 8.59552 0.301594 8.28758 0.0868847C8.28394 0.0832455 8.27847 0.0796064 8.27483 0.0777868C8.13634 -0.0259289 7.8612 -0.0259289 7.72271 0.0777868C7.4749 0.263383 7.22891 0.44898 6.98109 0.634576C6.38707 1.08037 5.79305 1.52799 5.19902 1.97378C4.48109 2.5142 3.76316 3.05279 3.04523 3.5932C2.4257 4.05902 1.80435 4.52665 1.18481 4.99246C0.884156 5.21808 0.5835 5.44371 0.282844 5.66934C0.2792 5.67298 0.273733 5.67662 0.270089 5.67844C0.151649 5.7676 0.0605412 5.85675 0.0186316 6.00414C-0.0178116 6.13515 -0.00141217 6.30801 0.0732963 6.42446C0.148005 6.54092 0.260978 6.64281 0.399462 6.67556C0.537946 6.7065 0.709229 6.70832 0.824025 6.62098C1.07184 6.43538 1.31783 6.24978 1.56564 6.06419C1.64582 6.00414 1.72781 5.94228 1.80799 5.88223V11.8814C1.80799 11.9323 1.80617 11.9833 1.80799 12.0342C1.82074 12.5564 2.21433 12.9822 2.74276 12.9968C3.04341 13.004 3.34407 12.9968 3.6429 12.9968H6.398C6.69319 12.9968 6.94465 12.7475 6.94465 12.4509V8.09665C6.94465 7.95836 6.93736 7.81826 6.93918 7.67815C7.16331 7.67269 7.38926 7.68543 7.60974 7.68543H8.92898C8.97453 7.68543 9.02009 7.68361 9.06564 7.68361C9.06564 7.78186 9.06017 7.88194 9.06017 7.97838V12.4509C9.06017 12.7457 9.30981 12.9968 9.60682 12.9968H13.1764C13.4589 12.9968 13.7285 12.9258 13.9308 12.7111C14.1203 12.5109 14.2005 12.2544 14.2005 11.9833V6.75381C14.2005 6.46631 14.2023 6.17882 14.2023 5.88951C14.2223 5.90406 14.2424 5.91862 14.2624 5.935C14.5613 6.16062 14.8565 6.39717 15.1644 6.61188C15.168 6.61552 15.1735 6.61916 15.1772 6.62098C15.2828 6.70104 15.4778 6.71014 15.5981 6.67556C15.7256 6.64099 15.8623 6.54273 15.9242 6.42446C15.9917 6.29709 16.0245 6.14425 15.9789 6.00414ZM10.1516 11.9014V7.51621C10.1498 7.27966 10.0678 7.07041 9.91477 6.89209C9.73984 6.6883 9.46652 6.59368 9.2023 6.59004H8.23656C7.75733 6.59004 7.27811 6.58277 6.79888 6.59004C6.27592 6.59732 5.85682 6.98671 5.85136 7.51803C5.84953 7.62902 5.85136 7.74002 5.85136 7.84919V11.9032H3.17279C3.08168 11.9032 2.98875 11.9068 2.89582 11.9087C2.89035 11.7176 2.90128 11.5229 2.90128 11.3355V5.69481C2.90128 5.48374 2.90493 5.27085 2.90311 5.05796C3.0507 4.94697 3.20012 4.83597 3.34771 4.72498C4.06564 4.18457 4.78357 3.64597 5.5015 3.10556C6.12104 2.63975 6.74239 2.17212 7.36192 1.70631C7.57512 1.54618 7.79195 1.39152 8.00515 1.2314C8.15821 1.34603 8.31309 1.46248 8.46615 1.57712C9.06017 2.02291 9.6542 2.47053 10.2482 2.91632C10.9662 3.45674 11.6841 3.99533 12.402 4.53574C12.6352 4.71224 12.8703 4.88692 13.1035 5.06342V11.1608C13.1035 11.4083 13.1072 11.6576 13.1054 11.905C13.0434 11.9032 12.9815 11.9014 12.9195 11.9014H10.1516Z" fill="#516975"/>
</svg>
