<svg width="61" height="72" viewBox="0 0 61 72" fill="none" xmlns="http://www.w3.org/2000/svg">
<path d="M58.8303 62.0186C57.6469 50.0521 54.4431 43.5704 40.9353 43.5704H38.0362V36.7248C38.8319 35.722 39.5301 34.6599 40.1395 33.5446C40.1514 38.8578 44.4705 43.1799 49.8074 43.1858C49.8133 43.1858 49.8192 43.1858 49.8281 43.1858C52.7124 43.1858 55.0673 40.8458 55.0732 37.917C55.0673 37.2899 54.9342 36.6953 54.7271 36.1391C55.8335 35.1333 56.5021 33.7192 56.4962 32.2134C56.4991 30.8141 55.9548 29.5006 54.9667 28.5125C53.9786 27.5215 52.6651 26.9742 51.2599 26.9742H51.041C49.6594 26.9416 48.4761 26.0393 48.0767 24.8974C48.5027 24.22 48.7779 23.4419 48.7749 22.5633C48.769 21.2971 48.201 20.1641 47.3224 19.3713C47.2366 14.5107 46.7218 1 30.6107 1C14.473 1 13.9849 14.558 13.9021 19.3979C12.9968 20.1996 12.4466 21.3504 12.4466 22.652C12.4436 23.4419 12.7069 24.1933 13.1063 24.8442C12.6537 26.0837 11.5236 26.9416 10.1982 26.9742H9.95565C8.55932 26.9742 7.24286 27.5215 6.25774 28.5095C5.26965 29.4976 4.72532 30.8141 4.72828 32.2075C4.7194 33.7221 5.39095 35.1362 6.49736 36.142C6.28732 36.7041 6.15124 37.3076 6.14828 37.9407C6.14828 39.34 6.68965 40.6565 7.6807 41.6475C8.66878 42.6385 9.98524 43.1858 11.423 43.1888C16.745 43.1858 21.0731 38.8608 21.0879 33.5446C21.7002 34.6658 22.3984 35.7308 23.1912 36.7278V43.5704H20.2862C6.78136 43.5704 3.57749 50.0521 2.3912 62.0304C2.1782 64.5775 1.7167 67.1217 1.0274 69.583C0.965279 69.8049 1.00965 70.0445 1.15165 70.2309C1.2907 70.4143 1.50961 70.5238 1.74036 70.5238H59.487C59.7178 70.5238 59.9367 70.4173 60.0757 70.2309C60.2148 70.0445 60.2592 69.8049 60.197 69.583C59.5048 67.1217 59.0462 64.5775 58.8303 62.0186ZM27.0667 48.4872C28.2382 48.7771 29.4274 48.9605 30.6196 48.9605C31.8118 48.9605 32.9952 48.7771 34.1578 48.4901L37.8084 69.0446H23.4161L27.0667 48.4872ZM34.5364 46.8867C31.9686 47.6736 29.2499 47.6795 26.6525 46.8778C25.4869 46.579 24.4485 45.9282 23.6557 45.0496H23.9249C24.3332 45.0496 24.6645 44.7183 24.6645 44.31V38.3785C26.2886 39.8311 28.3683 40.7097 30.6462 40.8221C32.8739 40.7097 34.9388 39.8281 36.554 38.3815V44.313C36.554 44.7212 36.8854 45.0525 37.2936 45.0525H37.5628C36.77 45.9282 35.7257 46.582 34.5364 46.8867ZM21.0849 22.655V20.8534C21.0967 18.469 23.0433 16.5312 25.4307 16.5312H25.4337H27.0341C28.5222 16.5253 29.8357 15.765 30.6137 14.6143C31.3917 15.765 32.7052 16.5253 34.1933 16.5312H35.7908C35.7937 16.5312 35.7937 16.5312 35.7967 16.5312C38.1811 16.5312 40.1306 18.469 40.1395 20.8504V22.652V30.0094C39.3408 32.1956 38.1989 34.2221 36.7049 36.0563C35.2524 38.0176 33.0188 39.2128 30.6522 39.3341C28.2115 39.2128 25.978 38.0176 24.5018 36.0267C23.0315 34.2221 21.8896 32.1927 21.0879 30.0065V22.655H21.0849ZM51.0232 28.4533H51.2658C53.3337 28.4563 55.0199 30.1396 55.017 32.2134C55.0229 33.1837 54.6472 34.1038 54.0023 34.8078C53.0408 33.5269 51.5232 32.6838 49.8103 32.6838H49.5737C49.1654 32.6838 48.8341 33.0151 48.8341 33.4233C48.8341 33.8316 49.1654 34.1629 49.5737 34.1629H49.8103C51.8782 34.1659 53.5763 35.8521 53.594 37.9525C53.5881 40.0234 51.8989 41.7067 49.8074 41.7067C49.8014 41.7067 49.7985 41.7067 49.7926 41.7067C45.2782 41.7007 41.6069 38.0265 41.6128 33.5121V25.8382C42.0181 26.205 42.4825 26.486 43.0091 26.6842C42.8375 28.8734 43.1955 31.0744 44.1067 33.0802C44.2309 33.3523 44.5001 33.5121 44.7812 33.5121C44.8847 33.5121 44.9853 33.4914 45.0888 33.447C45.4616 33.2784 45.6272 32.8405 45.4557 32.4678C44.6865 30.7727 44.3699 28.9178 44.4735 27.0037C45.4231 26.9978 46.3372 26.6606 47.0768 26.0896C47.8874 27.483 49.337 28.4119 51.0232 28.4533ZM30.6107 2.47917C43.2221 2.47917 45.5059 10.798 45.8107 18.4926C45.3817 18.3477 44.932 18.25 44.4587 18.2471H44.4557C44.0475 18.2471 43.7191 18.5755 43.7162 18.9837C43.7132 19.392 44.0416 19.7233 44.4528 19.7262C46.0118 19.7322 47.2898 21.0102 47.2957 22.658C47.2987 23.2733 47.0916 23.8768 46.7159 24.359C46.7041 24.3738 46.7129 24.3915 46.7041 24.4034C46.1716 25.1015 45.3344 25.5216 44.4676 25.5246C44.2871 25.5216 44.1096 25.5039 43.9587 25.4832C43.8907 25.4625 43.8463 25.4062 43.7783 25.4062C43.7694 25.4062 43.7635 25.4151 43.7546 25.4151C42.5092 25.0779 41.6128 23.9567 41.6157 22.655V20.8475C41.6009 17.6495 38.9917 15.0521 35.7937 15.0521C35.7908 15.0521 35.7908 15.0521 35.7878 15.0521H34.1933C32.6313 15.0491 31.3562 13.7711 31.3503 12.2121V4.57958C31.3503 4.17133 31.019 3.84 30.6107 3.84C30.2025 3.84 29.8712 4.17133 29.8712 4.57958V12.2091C29.8682 13.7711 28.5902 15.0491 27.0312 15.0521H25.4337C25.4307 15.0521 25.4307 15.0521 25.4277 15.0521C22.2298 15.0521 19.6205 17.6495 19.6057 20.8504V22.655C19.6087 24.0188 18.6384 25.208 17.3278 25.4743C17.1296 25.5068 16.9166 25.5423 16.7302 25.5246C15.8546 25.5246 15.0351 25.0986 14.5085 24.356C14.1299 23.8768 13.9228 23.2733 13.9257 22.5662C13.9257 21.6669 14.3606 20.8179 15.1239 20.2765C15.5735 19.9215 16.1327 19.7262 16.7036 19.7262C16.7243 19.7262 16.748 19.7233 16.7657 19.7262C17.1681 19.7262 17.4994 19.4038 17.5053 19.0015C17.5112 18.5932 17.1858 18.256 16.7805 18.2471C16.3161 18.2382 15.8516 18.3151 15.4138 18.463C15.7244 10.7684 18.023 2.47917 30.6107 2.47917ZM11.3816 41.7067C10.3757 41.7067 9.43203 41.3132 8.72203 40.6032C8.01203 39.8932 7.62153 38.9436 7.62449 37.9289C7.64224 35.8699 9.32849 34.1807 11.3816 34.1659H11.6182C12.0265 34.1659 12.3578 33.8345 12.3578 33.4263C12.3578 33.018 12.0265 32.6867 11.6182 32.6867H11.3757C9.68053 32.7015 8.18065 33.5417 7.22215 34.8167C6.57724 34.1126 6.19857 33.1896 6.20449 32.2134C6.20153 30.1396 7.88482 28.4563 9.96157 28.4533H10.216C11.8934 28.4119 13.337 27.483 14.1417 26.0867C14.8724 26.6635 15.7777 27.0037 16.7332 27.0037C16.7391 27.0037 16.745 27.0037 16.7509 27.0037C16.8663 28.8734 16.5468 30.749 15.7688 32.4707C15.6002 32.8405 15.7658 33.2813 16.1386 33.45C16.2332 33.4914 16.3368 33.5121 16.4403 33.5121C16.7214 33.5121 16.9906 33.3494 17.1148 33.0772C18.0349 31.0448 18.3928 28.8231 18.2124 26.6872C18.736 26.492 19.2004 26.2109 19.6057 25.8441V33.5121C19.6087 38.0295 15.9344 41.7037 11.3816 41.7067ZM3.86149 62.1635C4.98565 50.8124 7.83453 45.0496 20.2832 45.0496H21.8274C22.7297 46.4577 24.0758 47.5198 25.6378 48.076L21.9132 69.0417H2.70182C3.2787 66.7845 3.67215 64.474 3.86149 62.1635ZM39.3082 69.0417L35.5837 48.07C37.1546 47.508 38.4947 46.4489 39.3911 45.0466H40.9353C53.384 45.0466 56.2329 50.8095 57.357 62.1517C57.5523 64.4681 57.9428 66.7815 58.5197 69.0387H39.3082V69.0417Z" fill="#0587C7" stroke="#0587C7"/>
</svg>
