<svg width="25" height="29" viewBox="0 0 25 29" fill="none" xmlns="http://www.w3.org/2000/svg">
<path d="M13.1389 15.4389C16.8444 15.0981 19.7407 11.9889 19.7407 8.24074C19.7407 4.23704 16.5037 1 12.5 1C8.4963 1 5.25926 4.23704 5.25926 8.24074C5.25926 12.0315 8.15556 15.0981 11.8611 15.4389C5.72778 15.7796 1 20.8907 1 27.3222C1 27.7907 1.38333 28.1741 1.85185 28.1741C2.32037 28.1741 2.7037 27.7907 2.7037 27.3222C2.7037 21.487 6.92037 17.1 12.5 17.1C18.0796 17.1 22.2963 21.487 22.2963 27.3222C22.2963 27.7907 22.6796 28.1741 23.1481 28.1741C23.6167 28.1741 24 27.7907 24 27.3222C24 20.8907 19.2722 15.7796 13.1389 15.4389ZM6.96296 8.24074C6.96296 5.17407 9.43333 2.7037 12.5 2.7037C15.5667 2.7037 18.037 5.17407 18.037 8.24074C18.037 11.3074 15.5667 13.7778 12.5 13.7778C9.43333 13.7778 6.96296 11.2648 6.96296 8.24074Z" fill="#516975" stroke="#516975" stroke-width="0.3"/>
</svg>
