<svg width="57" height="66" viewBox="0 0 57 66" fill="none" xmlns="http://www.w3.org/2000/svg">
<path d="M55.1025 0.0124337C55.0475 -0.00414458 54.9888 -0.00414458 54.9338 0.0124337H6.6375C4.87804 0.0154083 3.19149 0.71567 1.94736 1.9598C0.703236 3.20393 0.00297458 4.89047 0 6.64993V58.6249C0.00297458 60.3844 0.703236 62.0709 1.94736 63.3151C3.19149 64.5592 4.87804 65.2595 6.6375 65.2624H55.0125C55.3109 65.2624 55.597 65.1439 55.808 64.9329C56.019 64.7219 56.1375 64.4358 56.1375 64.1374V1.13743C56.1384 0.854023 56.0323 0.580711 55.8404 0.37214C55.6485 0.163568 55.385 0.0351053 55.1025 0.0124337ZM53.8088 2.43118V10.8799C52.8736 10.6366 52.0455 10.0899 51.4545 9.32538C50.8634 8.56089 50.5428 7.62188 50.5428 6.65556C50.5428 5.68923 50.8634 4.75023 51.4545 3.98573C52.0455 3.22124 52.8736 2.67449 53.8088 2.43118ZM6.6375 2.26243H49.9613C48.8889 3.47239 48.2968 5.03317 48.2968 6.64993C48.2968 8.26669 48.8889 9.82748 49.9613 11.0374H6.6375C5.47386 11.0374 4.35789 10.5752 3.53507 9.75237C2.71225 8.92955 2.25 7.81357 2.25 6.64993C2.25 5.4863 2.71225 4.37032 3.53507 3.5475C4.35789 2.72469 5.47386 2.26243 6.6375 2.26243ZM53.8875 63.0124H6.6375C5.47478 63.0095 4.36052 62.5463 3.53835 61.7241C2.71618 60.9019 2.25297 59.7877 2.25 58.6249V11.6224C3.45988 12.695 5.02067 13.2873 6.6375 13.2874H53.8875V63.0124Z" fill="#0587C7"/>
<path d="M12.2625 55.2275C12.9302 55.8884 13.8318 56.2591 14.7713 56.2591C15.7107 56.2591 16.6123 55.8884 17.28 55.2275L26.8875 45.62L27.585 46.3175C27.6896 46.4229 27.814 46.5066 27.9511 46.5637C28.0882 46.6208 28.2352 46.6502 28.3838 46.6502C28.5323 46.6502 28.6793 46.6208 28.8164 46.5637C28.9535 46.5066 29.0779 46.4229 29.1825 46.3175C29.2879 46.2129 29.3716 46.0885 29.4288 45.9514C29.4859 45.8143 29.5153 45.6672 29.5153 45.5187C29.5153 45.3702 29.4859 45.2232 29.4288 45.0861C29.3716 44.949 29.2879 44.8246 29.1825 44.72L28.9688 44.5175L40.05 40.8162C41.7472 40.1782 43.2558 39.1218 44.4358 37.7451C45.6158 36.3685 46.429 34.7161 46.8 32.9412C47.15 31.3195 47.1037 29.6372 46.665 28.0372C46.2263 26.4371 45.4082 24.9665 44.28 23.75C44.0812 23.5326 43.8709 23.326 43.65 23.1312C42.4369 22.0053 40.9697 21.1892 39.3733 20.7524C37.7769 20.3155 36.0986 20.271 34.4813 20.6225C32.7056 20.9915 31.0522 21.804 29.6753 22.9842C28.2983 24.1645 27.2425 25.6741 26.6063 27.3725L22.9163 38.3975L22.7025 38.195C22.6017 38.0772 22.4775 37.9816 22.338 37.914C22.1984 37.8465 22.0464 37.8086 21.8914 37.8026C21.7365 37.7966 21.582 37.8227 21.4376 37.8793C21.2933 37.9358 21.1622 38.0216 21.0525 38.1312C20.9429 38.2409 20.8571 38.372 20.8005 38.5164C20.744 38.6607 20.7179 38.8152 20.7239 38.9702C20.7298 39.1251 20.7678 39.2771 20.8353 39.4167C20.9028 39.5563 20.9985 39.6804 21.1163 39.7812L21.8138 40.4787L12.2063 50.0862C11.8652 50.4235 11.5955 50.826 11.4132 51.2697C11.2309 51.7133 11.1396 52.1891 11.1448 52.6688C11.1501 53.1484 11.2517 53.6221 11.4437 54.0617C11.6357 54.5012 11.9142 54.8977 12.2625 55.2275ZM41.3775 24.695C42.5025 24.6275 42.7725 25.6512 42.5813 26.5512C42.1425 29.3075 39.2063 33.4362 36.9563 34.4262L36.8438 34.4937L26.7188 40.5125L32.7375 30.3875C32.7607 30.3523 32.7795 30.3146 32.7938 30.275C33.795 28.025 37.9125 25.1337 40.6688 24.65C40.9059 24.6375 41.1438 24.6526 41.3775 24.695ZM44.5163 32.4687C44.2336 33.8635 43.6041 35.1647 42.6859 36.252C41.7677 37.3393 40.5903 38.1778 39.2625 38.69L27.9 42.4925L38.025 36.4512C40.5 35.3262 43.3125 31.6925 44.415 28.4862C44.7706 29.786 44.8053 31.1526 44.5163 32.4687ZM28.6313 28.1375C29.1407 26.8025 29.9791 25.6179 31.0687 24.6936C32.1582 23.7692 33.4636 23.1351 34.8638 22.85C36.1812 22.5628 37.5492 22.6053 38.8463 22.9737C35.6288 24.0987 32.0288 26.8887 30.87 29.3637L24.84 39.4887L28.6313 28.1375ZM13.7025 51.7625L23.2988 42.155L25.2563 44.1012L15.6375 53.63C14.4225 54.8225 12.4763 52.8875 13.7025 51.6837V51.7625Z" fill="#0587C7"/>
</svg>
