<svg width="23" height="23" viewBox="0 0 23 23" fill="none" xmlns="http://www.w3.org/2000/svg">
<path d="M22.6885 21.01L18.396 16.7621C21.6537 12.7055 21.3471 6.73544 17.6295 3.02329C15.675 1.07155 13.1072 0 10.3478 0C7.58837 0 4.98226 1.07155 3.02768 3.02329C1.0731 4.97504 0 7.5391 0 10.3328C0 13.1265 1.0731 15.6905 3.02768 17.6423C4.98226 19.5557 7.55004 20.6656 10.3478 20.6656C12.6856 20.6656 14.9851 19.8619 16.7864 18.4077L21.0405 22.6556C21.2704 22.8852 21.5387 23 21.8453 23C22.1519 23 22.4585 22.8852 22.6501 22.6556C23.11 22.1963 23.11 21.4692 22.6885 21.01ZM18.396 10.3328C18.396 12.4759 17.5529 14.5042 16.0199 15.9967C14.4869 17.4892 12.494 18.3694 10.3478 18.3694C8.20157 18.3694 6.17034 17.5275 4.67566 15.9967C3.18098 14.4659 2.29951 12.4759 2.29951 10.3328C2.29951 8.18968 3.14266 6.1614 4.67566 4.66889C6.20866 3.17637 8.16324 2.29617 10.3478 2.29617C12.494 2.29617 14.5252 3.1381 16.0199 4.66889C17.5146 6.19967 18.396 8.15141 18.396 10.3328Z" fill="#0587C7"/>
</svg>
