<svg width="151" height="105" viewBox="0 0 151 105" fill="none" xmlns="http://www.w3.org/2000/svg">
<path d="M136.843 0.00564902C133.29 0.109203 129.917 1.59146 127.437 4.13862C105.929 25.6939 81.1801 50.378 58.8155 72.7604L22.8302 42.1192C21.4684 40.8951 19.8746 39.9568 18.1435 39.3598C16.4123 38.7628 14.579 38.5194 12.752 38.644C10.9251 38.7686 9.1417 39.2586 7.50761 40.085C5.87352 40.9115 4.42194 42.0576 3.23889 43.4553C2.05584 44.8531 1.16538 46.4741 0.62028 48.2223C0.0751819 49.9704 -0.113465 51.8102 0.0655147 53.6326C0.244495 55.455 0.78746 57.2231 1.66224 58.8318C2.53702 60.4405 3.72582 61.8573 5.15818 62.9982L50.7634 101.763C53.3861 103.982 56.7476 105.133 60.1801 104.988C63.6125 104.843 66.8647 103.411 69.2906 100.979C93.5913 76.6257 122.475 47.8471 146.819 23.4496C148.783 21.523 150.12 19.0494 150.657 16.3515C151.193 13.6535 150.904 10.8565 149.827 8.32532C148.75 5.79418 146.935 3.64644 144.619 2.16232C142.303 0.678208 139.593 -0.0733723 136.843 0.00564902Z" fill="#39D06C"/>
</svg>
