<svg width="27" height="32" viewBox="0 0 27 32" fill="none" xmlns="http://www.w3.org/2000/svg">
<path d="M18.5 27C18.7763 27 19 26.5998 19 26.1056V10.8944C19 10.4002 18.7763 10 18.5 10C18.2237 10 18 10.4002 18 10.8944V26.1056C18 26.5998 18.2237 27 18.5 27Z" fill="#DD4646"/>
<path d="M13.5 27C13.7763 27 14 26.5998 14 26.1056V10.8944C14 10.4002 13.7763 10 13.5 10C13.2237 10 13 10.4002 13 10.8944V26.1056C13 26.5998 13.2237 27 13.5 27Z" fill="#DD4646"/>
<path d="M8.5 27C8.77627 27 9 26.5998 9 26.1056V10.8944C9 10.4002 8.77627 10 8.5 10C8.22373 10 8 10.4002 8 10.8944V26.1056C8 26.5998 8.22347 27 8.5 27Z" fill="#DD4646"/>
<path d="M16.0222 0H10.9782C9.09728 0 7.56604 1.4159 7.56604 3.15498V5.03622H0.889703C0.398113 5.03622 0 5.43379 0 5.92472C0 6.41564 0.398113 6.81321 0.889703 6.81321H2.52249V28.592C2.52249 30.4713 4.05278 32 5.93373 32H21.0658C22.9477 32 24.4785 30.4713 24.4785 28.592V6.81321H26.1103C26.6019 6.81321 27 6.41564 27 5.92472C27 5.43379 26.6019 5.03622 26.1103 5.03622H19.434V3.15498C19.434 1.4159 17.9032 0 16.0222 0ZM9.34592 3.15498C9.34592 2.40865 10.0933 1.77699 10.9787 1.77699H16.0222C16.9077 1.77699 17.655 2.40865 17.655 3.15498V5.03622H9.34592V3.15498ZM22.6991 28.592C22.6991 29.4909 21.9659 30.223 21.0658 30.223H5.93373C5.03359 30.223 4.30189 29.4909 4.30189 28.592V6.81321H22.6991V28.592Z" fill="#DD4646"/>
</svg>
