<svg width="46" height="42" viewBox="0 0 46 42" fill="none" xmlns="http://www.w3.org/2000/svg">
<path d="M43.2362 18.1334C41.8594 16.7326 40.0834 15.8578 38.1606 15.6178C38.1777 15.3274 38.1863 15.0373 38.1863 14.7496C38.1863 6.61665 31.5697 0 23.4367 0C16.2446 0 10.1142 5.20738 8.90335 12.2214C3.85783 12.931 0 17.3039 0 22.4684C0 28.1758 4.64334 32.8191 10.3507 32.8191C10.4775 32.8191 10.6091 32.8163 10.7618 32.81C10.8835 32.8161 10.9984 32.8191 11.1115 32.8191H17.1445C17.6202 32.8191 18.0058 32.4335 18.0058 31.9578C18.0058 31.4821 17.6202 31.0965 17.1445 31.0965H11.1115C11.0174 31.0965 10.9202 31.0936 10.8144 31.0877L10.7718 31.0853L10.729 31.0872C10.5837 31.0935 10.4634 31.0965 10.3507 31.0965C5.59322 31.0965 1.72266 27.2259 1.72266 22.4684C1.72266 17.969 5.23514 14.1904 9.71914 13.866L10.4239 13.815L10.5117 13.1139C11.3246 6.61978 16.8812 1.72266 23.4367 1.72266C30.6198 1.72266 36.4637 7.56654 36.4637 14.7496C36.4637 15.2659 36.4322 15.7912 36.3702 16.3112L36.2572 17.2565L37.2091 17.2745C39.0275 17.3089 40.7316 18.0428 42.0075 19.3411C43.2852 20.6409 43.9888 22.3608 43.9888 24.1838C43.9888 27.9954 40.8877 31.0965 37.076 31.0965C36.9112 31.0965 36.7397 31.0901 36.5664 31.0774L36.5011 31.0726L36.4358 31.0777C36.2762 31.0904 36.1373 31.0965 36.0109 31.0965H29.8506C29.3749 31.0965 28.9893 31.4821 28.9893 31.9578C28.9893 32.4335 29.3749 32.8191 29.8506 32.8191H36.0109C36.1646 32.8191 36.3272 32.8129 36.5061 32.8C36.699 32.8127 36.8904 32.8191 37.076 32.8191C41.8376 32.8191 45.7114 28.9453 45.7114 24.1838C45.7114 21.9062 44.8323 19.7576 43.2362 18.1334Z" fill="#516975"/>
<path d="M29.5216 22.2635L22.8557 15.5977L16.1898 22.2635C15.8534 22.5999 15.8534 23.1452 16.1898 23.4817C16.5262 23.8179 17.0715 23.8179 17.408 23.4817L21.9943 18.8952V40.8952C21.9943 41.3709 22.3799 41.7565 22.8557 41.7565C23.3314 41.7565 23.717 41.3709 23.717 40.8952V18.8952L28.3034 23.4817C28.4716 23.6498 28.6921 23.7339 28.9125 23.7339C29.1329 23.7339 29.3534 23.6498 29.5216 23.4817C29.8579 23.1452 29.8579 22.5999 29.5216 22.2635Z" fill="#516975"/>
</svg>
