<?xml version="1.0" encoding="UTF-8"?>
<svg version="1.1" xmlns="http://www.w3.org/2000/svg" width="214" height="120">
<path d="M0 0 C2.63701437 2.22265287 5.19783529 4.50443477 7.73706055 6.83911133 C8.47956055 7.5068457 9.22206055 8.17458008 9.98706055 8.86254883 C11.98122652 11.11488807 12.79669577 12.9921354 13.73706055 15.83911133 C14.01807617 16.66926758 14.2990918 17.49942383 14.58862305 18.35473633 C18.23268651 31.23778897 18.43767856 44.53674668 12.73706055 56.83911133 C8.14225443 64.99118669 1.77626931 69.44284472 -6.26293945 73.83911133 C-6.81828369 74.1557373 -7.37362793 74.47236328 -7.94580078 74.79858398 C-13.80355687 77.96727315 -19.87889092 79.53208913 -26.32543945 81.08911133 C-27.90035156 81.49129883 -27.90035156 81.49129883 -29.50708008 81.90161133 C-41.90206129 84.95940405 -41.90206129 84.95940405 -48.26293945 82.83911133 C-49.95049791 81.19360167 -51.6146063 79.52391202 -53.26293945 77.83911133 C-55.0378448 76.38096638 -56.82992436 74.94349422 -58.63793945 73.52661133 C-63.3763782 69.68860367 -67.60465281 65.73008151 -71.26293945 60.83911133 C-72.06151367 59.80463867 -72.06151367 59.80463867 -72.8762207 58.74926758 C-74.9208552 54.45841489 -75.09298876 50.22594017 -75.45043945 45.52661133 C-75.53229492 44.61459961 -75.61415039 43.70258789 -75.69848633 42.76293945 C-75.92372 40.12259518 -76.10719837 37.48440815 -76.26293945 34.83911133 C-76.30749268 34.09854492 -76.3520459 33.35797852 -76.39794922 32.5949707 C-76.70171715 23.42313889 -71.73754047 16.17772497 -65.82543945 9.52661133 C-64.31410378 7.95492282 -62.79390856 6.39168141 -61.26293945 4.83911133 C-60.68672852 4.19071289 -60.11051758 3.54231445 -59.5168457 2.87426758 C-43.39901183 -14.78964149 -17.59652225 -14.41564039 0 0 Z " fill="#F2F4F2" transform="translate(78.262939453125,22.160888671875)"/>
<path d="M0 0 C0.88518311 0.00870117 1.77036621 0.01740234 2.68237305 0.02636719 C13.79061358 0.26964972 24.16520644 1.43512793 33.75 7.375 C33.75 8.035 33.75 8.695 33.75 9.375 C34.35070312 9.63410156 34.95140625 9.89320312 35.5703125 10.16015625 C41.86778819 13.67003965 45.23384483 21.82136018 48.453125 27.95703125 C49.78036614 30.52406649 49.78036614 30.52406649 51.75 33.375 C53.635513 42.42546241 53.61908716 50.70641253 49.72265625 59.18359375 C48.80850188 61.24319456 48.22545325 63.17790549 47.75 65.375 C47.09 65.375 46.43 65.375 45.75 65.375 C45.6675 65.91125 45.585 66.4475 45.5 67 C43.20080827 74.28077381 38.22144563 77.81671292 31.75 81.375 C29.22835187 82.48617136 26.70352094 83.48967143 24.109375 84.41796875 C21.67616452 85.29395152 21.67616452 85.29395152 19.5703125 86.96484375 C15.38329972 89.05835014 11.49022651 88.81081558 6.875 88.75 C6.00230469 88.76160156 5.12960938 88.77320312 4.23046875 88.78515625 C-4.09999054 88.74757523 -9.45179026 86.2308641 -16.25 81.375 C-16.96027344 80.87355469 -17.67054688 80.37210937 -18.40234375 79.85546875 C-22.70432072 76.74806535 -22.70432072 76.74806535 -24.25 75.375 C-24.25 74.715 -24.25 74.055 -24.25 73.375 C-24.91 73.375 -25.57 73.375 -26.25 73.375 C-30.69023963 69.26285689 -33.93233957 64.71788962 -36.23046875 59.13671875 C-37.18257365 57.20210351 -37.18257365 57.20210351 -39.3359375 55.93359375 C-41.25 54.375 -41.25 54.375 -41.74609375 52.2734375 C-41.45237736 39.62405179 -40.21085303 24.91372589 -32.125 14.6875 C-26.33882536 10.03340301 -19.86873507 6.68436753 -13.25 3.375 C-12.72664063 2.86066406 -12.20328125 2.34632812 -11.6640625 1.81640625 C-7.91756502 -0.42058011 -4.28279283 -0.0692136 0 0 Z " fill="#EEEEEB" transform="translate(149.25,3.625)"/>
<path d="M0 0 C1.74216797 0.04060547 1.74216797 0.04060547 3.51953125 0.08203125 C4.39996094 0.11683594 5.28039062 0.15164062 6.1875 0.1875 C6.1875 0.8475 6.1875 1.5075 6.1875 2.1875 C7.0228125 2.31125 7.0228125 2.31125 7.875 2.4375 C10.96713318 3.440354 12.83533046 4.96247476 15.1875 7.1875 C16 9.4375 16 9.4375 16.1875 11.1875 C16.8475 11.1875 17.5075 11.1875 18.1875 11.1875 C18.2956866 13.77195773 18.37487237 16.35187352 18.4375 18.9375 C18.48777344 20.03191406 18.48777344 20.03191406 18.5390625 21.1484375 C18.6049248 24.77086387 18.50505877 26.76496313 16.296875 29.703125 C14.1875 31.1875 14.1875 31.1875 12.1875 31.1875 C12.1875 31.8475 12.1875 32.5075 12.1875 33.1875 C10.2075 33.6825 10.2075 33.6825 8.1875 34.1875 C8.1875 34.8475 8.1875 35.5075 8.1875 36.1875 C-1.95820463 36.75202143 -9.20085409 35.9532344 -17.3125 29.625 C-20.67144994 26.35002381 -20.97932819 23.88707072 -21.0625 19.375 C-20.99728303 14.88807216 -20.43686044 11.9490833 -17.8125 8.1875 C-12.10275655 2.85013113 -7.93983541 -0.24060107 0 0 Z " fill="#171514" transform="translate(155.8125,41.8125)"/>
<path d="M0 0 C4.2111681 2.52670086 7.35936665 5.74626557 9.1875 10.3125 C9.453125 12.93359375 9.453125 12.93359375 9.4375 15.75 C9.44523437 17.14025391 9.44523437 17.14025391 9.453125 18.55859375 C9.17201512 21.47304176 8.39997903 23.66140497 7.1875 26.3125 C6.5275 26.3125 5.8675 26.3125 5.1875 26.3125 C5.1875 26.9725 5.1875 27.6325 5.1875 28.3125 C3.7265625 29.6015625 3.7265625 29.6015625 1.8125 30.9375 C1.18601562 31.38351563 0.55953125 31.82953125 -0.0859375 32.2890625 C-1.8125 33.3125 -1.8125 33.3125 -3.8125 33.3125 C-3.8125 33.9725 -3.8125 34.6325 -3.8125 35.3125 C-11.54507209 35.96290326 -17.67018662 35.44234414 -23.8125 30.3125 C-27.54800244 24.85110086 -25.96788138 17.16115871 -25.625 10.875 C-23.98898575 5.71526274 -19.48232934 2.54433336 -14.83984375 0.03515625 C-10.01715904 -1.68391248 -4.89481495 -1.19651032 0 0 Z " fill="#16161C" transform="translate(70.8125,51.6875)"/>
<path d="M0 0 C0.598125 0.20625 1.19625 0.4125 1.8125 0.625 C1.3175 1.016875 0.8225 1.40875 0.3125 1.8125 C-1.66314327 4.19973561 -1.33894359 5.59612814 -1.1875 8.625 C-1.5175 9.615 -1.8475 10.605 -2.1875 11.625 C-1.65555397 14.16518266 -1.65555397 14.16518266 -0.75 16.8125 C-0.46253906 17.71355469 -0.17507812 18.61460938 0.12109375 19.54296875 C0.34925781 20.23003906 0.57742187 20.91710937 0.8125 21.625 C-0.1775 22.12 -0.1775 22.12 -1.1875 22.625 C-1.1875 21.965 -1.1875 21.305 -1.1875 20.625 C-1.8475 20.625 -2.5075 20.625 -3.1875 20.625 C-3.1875 21.285 -3.1875 21.945 -3.1875 22.625 C-4.05375 22.74875 -4.05375 22.74875 -4.9375 22.875 C-7.8034304 23.83031013 -9.1865764 25.40969173 -11.1875 27.625 C-9.7953125 27.1609375 -9.7953125 27.1609375 -8.375 26.6875 C-3.56312824 25.08354275 -1.18074496 24.70787338 3.8125 25.625 C5.1325 25.625 6.4525 25.625 7.8125 25.625 C8.18375 23.954375 8.18375 23.954375 8.5625 22.25 C9.8125 18.625 9.8125 18.625 11.75 17.625 C12.430625 17.295 13.11125 16.965 13.8125 16.625 C15.07754947 14.35111362 15.90426533 12.07723361 16.8125 9.625 C17.1425 9.625 17.4725 9.625 17.8125 9.625 C17.8125 11.605 17.8125 13.585 17.8125 15.625 C17.1525 15.625 16.4925 15.625 15.8125 15.625 C15.73 16.16125 15.6475 16.6975 15.5625 17.25 C13.26330827 24.53077381 8.28394563 28.06671292 1.8125 31.625 C-0.70914813 32.73617136 -3.23397906 33.73967143 -5.828125 34.66796875 C-8.26133548 35.54395152 -8.26133548 35.54395152 -10.3671875 37.21484375 C-14.55420028 39.30835014 -18.44727349 39.06081558 -23.0625 39 C-23.93519531 39.01160156 -24.80789062 39.02320313 -25.70703125 39.03515625 C-34.03749054 38.99757523 -39.38929026 36.4808641 -46.1875 31.625 C-46.89777344 31.12355469 -47.60804688 30.62210938 -48.33984375 30.10546875 C-52.64182072 26.99806535 -52.64182072 26.99806535 -54.1875 25.625 C-54.1875 24.965 -54.1875 24.305 -54.1875 23.625 C-54.8475 23.295 -55.5075 22.965 -56.1875 22.625 C-55.5275 22.625 -54.8675 22.625 -54.1875 22.625 C-53.8575 21.635 -53.5275 20.645 -53.1875 19.625 C-53.1875 20.615 -53.1875 21.605 -53.1875 22.625 C-49.5575 22.955 -45.9275 23.285 -42.1875 23.625 C-42.1875 24.285 -42.1875 24.945 -42.1875 25.625 C-39.5475 25.625 -36.9075 25.625 -34.1875 25.625 C-35.1775 25.955 -36.1675 26.285 -37.1875 26.625 C-37.1875 27.285 -37.1875 27.945 -37.1875 28.625 C-32.2375 28.295 -27.2875 27.965 -22.1875 27.625 C-23.755 27.191875 -25.3225 26.75875 -26.9375 26.3125 C-30.64708311 25.28748361 -33.22403214 24.09686455 -36.1875 21.625 C-33.42473823 22.14768466 -30.8614124 22.73369587 -28.1875 23.625 C-25.96175665 23.84951458 -23.73168481 24.03282878 -21.5 24.1875 C-20.32050781 24.27128906 -19.14101562 24.35507813 -17.92578125 24.44140625 C-16.57033203 24.53228516 -16.57033203 24.53228516 -15.1875 24.625 C-15.1875 23.965 -15.1875 23.305 -15.1875 22.625 C-13.8675 22.295 -12.5475 21.965 -11.1875 21.625 C-11.1875 20.965 -11.1875 20.305 -11.1875 19.625 C-9.5375 18.965 -7.8875 18.305 -6.1875 17.625 C-6.15011719 16.49320313 -6.11273438 15.36140625 -6.07421875 14.1953125 C-6.00856918 12.71350795 -5.94212149 11.23173861 -5.875 9.75 C-5.85244141 9.00363281 -5.82988281 8.25726563 -5.80664062 7.48828125 C-5.70938055 5.525396 -5.45707706 3.57171678 -5.1875 1.625 C-2.1875 -0.375 -2.1875 -0.375 0 0 Z " fill="#A0A6A4" transform="translate(179.1875,53.375)"/>
<path d="M0 0 C4.1986414 2.51918484 7.39055048 5.74288177 9.1875 10.3125 C9.3828125 13.109375 9.3828125 13.109375 9.3125 16.0625 C9.29445312 17.04734375 9.27640625 18.0321875 9.2578125 19.046875 C9.23460937 19.79453125 9.21140625 20.5421875 9.1875 21.3125 C8.1975 21.8075 8.1975 21.8075 7.1875 22.3125 C7.1875 19.0125 7.1875 15.7125 7.1875 12.3125 C6.8575 14.6225 6.5275 16.9325 6.1875 19.3125 C5.8575 18.3225 5.5275 17.3325 5.1875 16.3125 C4.1975 16.3125 3.2075 16.3125 2.1875 16.3125 C2.1875 15.3225 2.1875 14.3325 2.1875 13.3125 C1.50042969 13.34730469 0.81335938 13.38210937 0.10546875 13.41796875 C-0.79558594 13.44503906 -1.69664063 13.47210938 -2.625 13.5 C-3.96498047 13.55220703 -3.96498047 13.55220703 -5.33203125 13.60546875 C-8.22897515 13.26331002 -9.03805028 12.55856427 -10.8125 10.3125 C-10.8125 11.6325 -10.8125 12.9525 -10.8125 14.3125 C-12.4625 14.3125 -14.1125 14.3125 -15.8125 14.3125 C-16.1425 17.2825 -16.4725 20.2525 -16.8125 23.3125 C-20.43576739 24.5202558 -21.45396369 23.85561128 -24.8125 22.3125 C-24.8125 23.3025 -24.8125 24.2925 -24.8125 25.3125 C-23.8225 25.6425 -22.8325 25.9725 -21.8125 26.3125 C-21.8125 27.9625 -21.8125 29.6125 -21.8125 31.3125 C-24.43253078 28.8063836 -25.75487798 27.44460314 -25.9453125 23.703125 C-25.91040107 9.66873074 -25.91040107 9.66873074 -22.6875 5.6875 C-15.27951072 -0.43214332 -9.49144053 -2.32012991 0 0 Z " fill="#4C4943" transform="translate(70.8125,51.6875)"/>
<path d="M0 0 C2.04169002 5.50597696 -0.92462348 10.84614832 -3 16 C-7.59480611 24.15207536 -13.96079124 28.60373339 -22 33 C-22.83301636 33.47493896 -22.83301636 33.47493896 -23.68286133 33.95947266 C-29.54061742 37.12816183 -35.61595147 38.6929778 -42.0625 40.25 C-43.11244141 40.518125 -44.16238281 40.78625 -45.24414062 41.0625 C-57.63912184 44.12029272 -57.63912184 44.12029272 -64 42 C-65.38576923 40.37667033 -66.72641268 38.71275535 -68 37 C-67.34 36.34 -66.68 35.68 -66 35 C-65.01 35.66 -64.02 36.32 -63 37 C-63.33 37.66 -63.66 38.32 -64 39 C-63.113125 38.690625 -62.22625 38.38125 -61.3125 38.0625 C-56.52696175 36.66137334 -51.65051898 36.52263716 -46.6953125 36.24609375 C-44.084241 36.29753541 -44.084241 36.29753541 -43 35 C-41.33382885 34.95936168 -39.66611905 34.957279 -38 35 C-38 34.34 -38 33.68 -38 33 C-36.906875 32.773125 -35.81375 32.54625 -34.6875 32.3125 C-30.87511789 31.34252805 -30.87511789 31.34252805 -29.0625 28.375 C-28.711875 27.59125 -28.36125 26.8075 -28 26 C-30.64 25.67 -33.28 25.34 -36 25 C-36 24.67 -36 24.34 -36 24 C-33.03 24 -30.06 24 -27 24 C-27 23.34 -27 22.68 -27 22 C-25.46875 20.7109375 -25.46875 20.7109375 -23.5 19.375 C-22.8503125 18.92898437 -22.200625 18.48296875 -21.53125 18.0234375 C-21.0259375 17.68570313 -20.520625 17.34796875 -20 17 C-19.34 17.33 -18.68 17.66 -18 18 C-18.495 19.485 -18.495 19.485 -19 21 C-17.865625 20.38125 -16.73125 19.7625 -15.5625 19.125 C-14.92441406 18.77695313 -14.28632812 18.42890625 -13.62890625 18.0703125 C-11.83381685 17.08589976 -11.83381685 17.08589976 -11 15 C-10.175 14.71125 -9.35 14.4225 -8.5 14.125 C-7.675 13.75375 -6.85 13.3825 -6 13 C-5.26676204 10.98491642 -5.26676204 10.98491642 -5 9 C-4.34 8.67 -3.68 8.34 -3 8 C-2.28293018 6.01751285 -1.61709587 4.01584651 -1 2 C-0.67 1.34 -0.34 0.68 0 0 Z " fill="#97A8BA" transform="translate(94,63)"/>
<path d="M0 0 C1.71160615 3.42321229 0.95545825 7.29027929 0.83984375 11.0546875 C1.00405799 14.07462752 1.24947191 15.56100203 3 18 C8.92522981 22.15550144 14.87231505 23.65511202 22 24 C19.79792746 28.84455959 19.79792746 28.84455959 18 31 C14.25 31.9375 14.25 31.9375 11 32 C11 32.66 11 33.32 11 34 C6.77663983 35.56867663 3.05449909 36.30904987 -1.4375 36.5625 C-6.01191775 36.8555977 -10.47749859 37.26377884 -15 38 C-15 37.34 -15 36.68 -15 36 C-15.99 36 -16.98 36 -18 36 C-18.66 35.67 -19.32 35.34 -20 35 C-19.67 34.34 -19.34 33.68 -19 33 C-19.66 32.67 -20.32 32.34 -21 32 C-19.35 32.33 -17.7 32.66 -16 33 C-15.01 31.02 -14.02 29.04 -13 27 C-10.36 27 -7.72 27 -5 27 C-4.67 26.01 -4.34 25.02 -4 24 C-3.34 23.67 -2.68 23.34 -2 23 C-1.59270772 20.67843403 -1.25561323 18.3431213 -1 16 C-2.98 16.99 -2.98 16.99 -5 18 C-4.67 17.01 -4.34 16.02 -4 15 C-3.01 15 -2.02 15 -1 15 C-1.01160156 14.00097656 -1.02320312 13.00195312 -1.03515625 11.97265625 C-1.04417969 10.68230469 -1.05320312 9.39195313 -1.0625 8.0625 C-1.07410156 6.77472656 -1.08570312 5.48695312 -1.09765625 4.16015625 C-1 1 -1 1 0 0 Z " fill="#B6BEC3" transform="translate(45,64)"/>
<path d="M0 0 C0.33 0 0.66 0 1 0 C1.16276042 2.01822917 1.32552083 4.03645833 1.48828125 6.0546875 C1.87393036 8.39519216 1.87393036 8.39519216 5 10 C6.32 10 7.64 10 9 10 C9 11.65 9 13.3 9 15 C9.99 14.67 10.98 14.34 12 14 C15.5625 14.1875 15.5625 14.1875 19 15 C20.125 17 20.125 17 21 19 C23.55519921 19.81171228 23.55519921 19.81171228 26 20 C26 17.03 26 14.06 26 11 C26.33 11 26.66 11 27 11 C27.07476562 11.73605469 27.14953125 12.47210938 27.2265625 13.23046875 C27.98658562 20.0008019 27.98658562 20.0008019 32.125 25.0625 C33.07375 25.701875 34.0225 26.34125 35 27 C35 27.66 35 28.32 35 29 C35.54140625 29.13277344 36.0828125 29.26554687 36.640625 29.40234375 C39.3532415 30.08948005 42.05106023 30.82350459 44.75 31.5625 C46.22726563 31.96662109 46.22726563 31.96662109 47.734375 32.37890625 C48.48203125 32.58386719 49.2296875 32.78882813 50 33 C49.505 33.99 49.505 33.99 49 35 C44.05 35 39.1 35 34 35 C34 34.34 34 33.68 34 33 C32.35 32.67 30.7 32.34 29 32 C29 31.34 29 30.68 29 30 C28.07058594 30.00902344 27.14117187 30.01804687 26.18359375 30.02734375 C14.82250468 29.75486716 14.82250468 29.75486716 10.875 25.9375 C8.32686477 22.84014264 6.52558047 19.50635584 5.01953125 15.796875 C4.08126122 13.82525181 4.08126122 13.82525181 1.90234375 12.62109375 C0 11 0 11 -0.390625 8.30078125 C-0.34421875 7.31464844 -0.2978125 6.32851563 -0.25 5.3125 C-0.21390625 4.31863281 -0.1778125 3.32476562 -0.140625 2.30078125 C-0.09421875 1.54152344 -0.0478125 0.78226563 0 0 Z " fill="#D1D7CC" transform="translate(108,47)"/>
<path d="M0 0 C1.74216797 0.04060547 1.74216797 0.04060547 3.51953125 0.08203125 C4.39996094 0.11683594 5.28039062 0.15164062 6.1875 0.1875 C6.1875 0.5175 6.1875 0.8475 6.1875 1.1875 C5.300625 1.208125 4.41375 1.22875 3.5 1.25 C-1.09248324 2.54975941 -2.46592619 5.2107842 -4.8125 9.1875 C-6.1325 8.5275 -7.4525 7.8675 -8.8125 7.1875 C-8.8125 8.1775 -8.8125 9.1675 -8.8125 10.1875 C-7.4925 10.5175 -6.1725 10.8475 -4.8125 11.1875 C-4.998125 11.991875 -5.18375 12.79625 -5.375 13.625 C-5.5915625 14.8934375 -5.5915625 14.8934375 -5.8125 16.1875 C-5.4825 16.5175 -5.1525 16.8475 -4.8125 17.1875 C-4.90187803 18.71269276 -5.05787146 20.23431929 -5.25 21.75 C-5.35183594 22.57628906 -5.45367187 23.40257813 -5.55859375 24.25390625 C-5.64238281 24.89199219 -5.72617188 25.53007813 -5.8125 26.1875 C-7.7925 26.8475 -9.7725 27.5075 -11.8125 28.1875 C-11.8125 26.5375 -11.8125 24.8875 -11.8125 23.1875 C-13.7925 23.5175 -15.7725 23.8475 -17.8125 24.1875 C-17.4825 25.8375 -17.1525 27.4875 -16.8125 29.1875 C-19.8125 27.1875 -19.8125 27.1875 -20.8125 24.1875 C-21.34672104 18.21860719 -21.34556722 13.25156302 -17.8125 8.1875 C-12.10275655 2.85013113 -7.93983541 -0.24060107 0 0 Z " fill="#465062" transform="translate(155.8125,41.8125)"/>
<path d="M0 0 C0.05402274 2.10388569 0.09280256 4.20816714 0.125 6.3125 C0.14820312 7.48425781 0.17140625 8.65601563 0.1953125 9.86328125 C0 13 0 13 -2 16 C-2.70164642 17.98799818 -3.37372872 19.98698517 -4 22 C-4.66 22 -5.32 22 -6 22 C-6.33 23.65 -6.66 25.3 -7 27 C-8.65 27.33 -10.3 27.66 -12 28 C-12.33 28.99 -12.66 29.98 -13 31 C-15.58072903 33.32265612 -16.45176068 34 -20 34 C-19.505 31.03 -19.505 31.03 -19 28 C-18.34 28 -17.68 28 -17 28 C-16.85304688 26.30230469 -16.85304688 26.30230469 -16.703125 24.5703125 C-16.55306219 23.08844222 -16.40196679 21.60667624 -16.25 20.125 C-16.188125 19.37863281 -16.12625 18.63226563 -16.0625 17.86328125 C-15.828125 15.6953125 -15.828125 15.6953125 -15 12 C-12.921875 10.4921875 -12.921875 10.4921875 -11 10 C-10.34 11.32 -9.68 12.64 -9 14 C-7.35 13.34 -5.7 12.68 -4 12 C-4.185625 10.741875 -4.37125 9.48375 -4.5625 8.1875 C-5.00732761 5.17255732 -4.99843846 3.99531539 -4 1 C-2 0 -2 0 0 0 Z " fill="#A5B7C8" transform="translate(95,50)"/>
<path d="M0 0 C4.3741638 -0.16823707 7.18059182 -0.09451417 11 2 C23.89073363 4.66383657 37.94420174 2.78700183 51 2 C48.89237397 4.10762603 47.34091975 4.84505738 44.625 6 C41.32568211 7.40625758 41.32568211 7.40625758 38.1394043 9.04370117 C34.32402582 10.74914879 30.3053696 10.32743064 26.1875 10.3125 C25.31029297 10.32861328 24.43308594 10.34472656 23.52929688 10.36132812 C14.59120104 10.36801331 7.76715316 7.44934295 1.125 1.25 C0.75375 0.8375 0.3825 0.425 0 0 Z " fill="#8E989C" transform="translate(130,82)"/>
<path d="M0 0 C7.21199248 -0.4694968 12.14537421 -0.48439422 18 4 C19.4375 6.25 19.4375 6.25 20 8 C16.06094403 9.14889133 12.06434042 9.52582695 8 10 C7.67 11.32 7.34 12.64 7 14 C6.34 14 5.68 14 5 14 C5 15.32 5 16.64 5 18 C6.32 17.67 7.64 17.34 9 17 C9.33 18.32 9.66 19.64 10 21 C9.46375 20.855625 8.9275 20.71125 8.375 20.5625 C5.89542464 19.91984325 5.89542464 19.91984325 2.875 19.6875 C0 19 0 19 -1.4375 17.25 C-2.1205535 14.51778598 -1.74714785 12.68973228 -1 10 C-1.99 9.67 -2.98 9.34 -4 9 C-4 8.01 -4 7.02 -4 6 C-2.68 6.33 -1.36 6.66 0 7 C1.32 5.35 2.64 3.7 4 2 C2.68 1.34 1.36 0.68 0 0 Z " fill="#37322F" transform="translate(151,43)"/>
<path d="M0 0 C1.35358503 2.70717007 0.95126377 4.73470068 0.8125 7.75 C0.73894783 13.32659181 1.4547639 15.79003213 5 20 C5 20.66 5 21.32 5 22 C6.32 22.33 7.64 22.66 9 23 C7.88625 23.4125 6.7725 23.825 5.625 24.25 C2.67333057 25.48591903 2.67333057 25.48591903 0.75 28 C0.5025 28.66 0.255 29.32 0 30 C-2.0792645 32.45731259 -4.13043146 33.60869404 -7 35 C-7.66 35.53625 -8.32 36.0725 -9 36.625 C-11 38 -11 38 -15 38 C-15 37.34 -15 36.68 -15 36 C-15.99 36 -16.98 36 -18 36 C-18.66 35.67 -19.32 35.34 -20 35 C-19.67 34.34 -19.34 33.68 -19 33 C-19.66 32.67 -20.32 32.34 -21 32 C-19.35 32.33 -17.7 32.66 -16 33 C-15.01 31.02 -14.02 29.04 -13 27 C-10.36 27 -7.72 27 -5 27 C-4.67 26.01 -4.34 25.02 -4 24 C-3.34 23.67 -2.68 23.34 -2 23 C-1.59270772 20.67843403 -1.25561323 18.3431213 -1 16 C-2.98 16.99 -2.98 16.99 -5 18 C-4.67 17.01 -4.34 16.02 -4 15 C-3.01 15 -2.02 15 -1 15 C-1.01160156 14.00097656 -1.02320312 13.00195312 -1.03515625 11.97265625 C-1.04417969 10.68230469 -1.05320312 9.39195313 -1.0625 8.0625 C-1.07410156 6.77472656 -1.08570312 5.48695312 -1.09765625 4.16015625 C-1 1 -1 1 0 0 Z " fill="#C9CFCE" transform="translate(45,64)"/>
<path d="M0 0 C0.66 0.33 1.32 0.66 2 1 C2.08333357 5.8333472 1.95261487 10.23692563 1 15 C0.34 15 -0.32 15 -1 15 C-1 15.66 -1 16.32 -1 17 C-4.17457064 20.09943287 -6.99728468 21.90884406 -11.4375 22.3125 C-12.283125 22.209375 -13.12875 22.10625 -14 22 C-14 21.34 -14 20.68 -14 20 C-14.99 19.34 -15.98 18.68 -17 18 C-16.67 17.34 -16.34 16.68 -16 16 C-17.32 16 -18.64 16 -20 16 C-19.67 15.34 -19.34 14.68 -19 14 C-16.69 14.33 -14.38 14.66 -12 15 C-12 13.68 -12 12.36 -12 11 C-11.34 11 -10.68 11 -10 11 C-10.33 9.68 -10.66 8.36 -11 7 C-6.69230769 3.92307692 -6.69230769 3.92307692 -3.1875 4.3125 C-2.465625 4.539375 -1.74375 4.76625 -1 5 C-0.67 3.35 -0.34 1.7 0 0 Z " fill="#0D1219" transform="translate(77,63)"/>
<path d="M0 0 C0.495 1.485 0.495 1.485 1 3 C-5.46184411 14.43249343 -17.64314707 21.07510147 -29.75 25.3125 C-32.74671928 25.94642139 -34.20570634 26.11771746 -37 25 C-36.01 25 -35.02 25 -34 25 C-34 24.34 -34 23.68 -34 23 C-33.34 23 -32.68 23 -32 23 C-32 22.34 -32 21.68 -32 21 C-31.36191406 20.89042969 -30.72382812 20.78085938 -30.06640625 20.66796875 C-29.24011719 20.50941406 -28.41382813 20.35085937 -27.5625 20.1875 C-26.73878906 20.03667969 -25.91507813 19.88585937 -25.06640625 19.73046875 C-24.04353516 19.36888672 -24.04353516 19.36888672 -23 19 C-22.67 18.01 -22.34 17.02 -22 16 C-19.33916031 14.00603743 -16.38757675 12 -13 12 C-13 11.34 -13 10.68 -13 10 C-12.01 10 -11.02 10 -10 10 C-9.67 8.68 -9.34 7.36 -9 6 C-7.68 5.67 -6.36 5.34 -5 5 C-5 4.34 -5 3.68 -5 3 C-3.68 3 -2.36 3 -1 3 C-0.67 2.01 -0.34 1.02 0 0 Z " fill="#6686A6" transform="translate(90,76)"/>
<path d="M0 0 C1.39456452 0.00667256 2.78911118 0.01863093 4.18359375 0.03515625 C4.89451172 0.03966797 5.60542969 0.04417969 6.33789062 0.04882812 C8.09899388 0.06064761 9.86005411 0.07858362 11.62109375 0.09765625 C11.62109375 0.75765625 11.62109375 1.41765625 11.62109375 2.09765625 C12.28109375 2.09765625 12.94109375 2.09765625 13.62109375 2.09765625 C13.62109375 2.75765625 13.62109375 3.41765625 13.62109375 4.09765625 C14.28109375 4.09765625 14.94109375 4.09765625 15.62109375 4.09765625 C15.29109375 2.77765625 14.96109375 1.45765625 14.62109375 0.09765625 C16.62109375 1.47265625 16.62109375 1.47265625 18.62109375 3.09765625 C18.62109375 3.75765625 18.62109375 4.41765625 18.62109375 5.09765625 C19.1625 5.23042969 19.70390625 5.36320312 20.26171875 5.5 C22.97433525 6.1871363 25.67215398 6.92116084 28.37109375 7.66015625 C29.3559375 7.92957031 30.34078125 8.19898437 31.35546875 8.4765625 C32.103125 8.68152344 32.85078125 8.88648437 33.62109375 9.09765625 C33.29109375 9.75765625 32.96109375 10.41765625 32.62109375 11.09765625 C27.67109375 11.09765625 22.72109375 11.09765625 17.62109375 11.09765625 C17.62109375 10.43765625 17.62109375 9.77765625 17.62109375 9.09765625 C15.14609375 8.60265625 15.14609375 8.60265625 12.62109375 8.09765625 C12.62109375 7.43765625 12.62109375 6.77765625 12.62109375 6.09765625 C11.64527344 6.071875 10.66945312 6.04609375 9.6640625 6.01953125 C7.75560547 5.93445313 7.75560547 5.93445313 5.80859375 5.84765625 C4.54402344 5.80125 3.27945313 5.75484375 1.9765625 5.70703125 C-1.37890625 5.09765625 -1.37890625 5.09765625 -3.328125 3.05078125 C-3.67488281 2.40625 -4.02164063 1.76171875 -4.37890625 1.09765625 C-3.37890625 0.09765625 -3.37890625 0.09765625 0 0 Z " fill="#B7BBB8" transform="translate(124.37890625,70.90234375)"/>
<path d="M0 0 C0.66 0 1.32 0 2 0 C2 0.66 2 1.32 2 2 C2.66 2 3.32 2 4 2 C4 2.99 4 3.98 4 5 C3.34 5 2.68 5 2 5 C1.95101562 5.59167969 1.90203125 6.18335938 1.8515625 6.79296875 C1.43543133 11.19104472 0.95034405 14.96928897 -1 19 C-3.31 18.34 -5.62 17.68 -8 17 C-8 17.99 -8 18.98 -8 20 C-7.01 20.33 -6.02 20.66 -5 21 C-5 22.65 -5 24.3 -5 26 C-7.62003078 23.4938836 -8.94237798 22.13210314 -9.1328125 18.390625 C-9.10691824 7.98113208 -9.10691824 7.98113208 -8 3 C-7.67 3 -7.34 3 -7 3 C-7 4.65 -7 6.3 -7 8 C-6.34 8 -5.68 8 -5 8 C-5 7.34 -5 6.68 -5 6 C-3.35 6 -1.7 6 0 6 C-0.2784375 4.7934375 -0.2784375 4.7934375 -0.5625 3.5625 C-0.706875 2.716875 -0.85125 1.87125 -1 1 C-0.67 0.67 -0.34 0.34 0 0 Z " fill="#686366" transform="translate(54,57)"/>
<path d="M0 0 C1.74216797 0.04060547 1.74216797 0.04060547 3.51953125 0.08203125 C4.39996094 0.11683594 5.28039062 0.15164062 6.1875 0.1875 C6.1875 0.5175 6.1875 0.8475 6.1875 1.1875 C5.300625 1.208125 4.41375 1.22875 3.5 1.25 C-1.09248324 2.54975941 -2.46592619 5.2107842 -4.8125 9.1875 C-7.2875 8.1975 -7.2875 8.1975 -9.8125 7.1875 C-9.8125 8.1775 -9.8125 9.1675 -9.8125 10.1875 C-10.8025 10.1875 -11.7925 10.1875 -12.8125 10.1875 C-13.1425 11.1775 -13.4725 12.1675 -13.8125 13.1875 C-15.4625 13.1875 -17.1125 13.1875 -18.8125 13.1875 C-19.1425 16.8175 -19.4725 20.4475 -19.8125 24.1875 C-20.1425 24.1875 -20.4725 24.1875 -20.8125 24.1875 C-21.39245227 13.31876492 -21.39245227 13.31876492 -17.8125 8.1875 C-12.10275655 2.85013113 -7.93983541 -0.24060107 0 0 Z " fill="#5A5753" transform="translate(155.8125,41.8125)"/>
<path d="M0 0 C0 4.29 0 8.58 0 13 C-1.65 13.66 -3.3 14.32 -5 15 C-6.05352843 17.30965848 -7.05719096 19.6429774 -8 22 C-8.99 22.33 -9.98 22.66 -11 23 C-11 21.68 -11 20.36 -11 19 C-11.66 19 -12.32 19 -13 19 C-13.33 20.32 -13.66 21.64 -14 23 C-14.33 19.37 -14.66 15.74 -15 12 C-13.68 11.34 -12.36 10.68 -11 10 C-10.34 11.32 -9.68 12.64 -9 14 C-7.35 13.34 -5.7 12.68 -4 12 C-4.185625 10.741875 -4.37125 9.48375 -4.5625 8.1875 C-5.00732761 5.17255732 -4.99843846 3.99531539 -4 1 C-2 0 -2 0 0 0 Z " fill="#C1C6C3" transform="translate(95,50)"/>
<path d="M0 0 C0.33 0.99 0.66 1.98 1 3 C4.63 3.33 8.26 3.66 12 4 C12 4.66 12 5.32 12 6 C14.64 6 17.28 6 20 6 C19.01 6.33 18.02 6.66 17 7 C17 7.66 17 8.32 17 9 C21.95 8.67 26.9 8.34 32 8 C31.34 7.34 30.68 6.68 30 6 C33.3 6 36.6 6 40 6 C38 10 38 10 36 11 C32.90215121 11.26385085 29.79534677 11.23151467 26.6875 11.25 C25.83220703 11.270625 24.97691406 11.29125 24.09570312 11.3125 C19.12549101 11.34329915 16.14141662 11.01551819 12 8 C9.45809998 7.7499227 9.45809998 7.7499227 7 8 C3 8 3 8 0 6 C0 5.34 0 4.68 0 4 C-0.66 3.67 -1.32 3.34 -2 3 C-1.34 3 -0.68 3 0 3 C0 2.01 0 1.02 0 0 Z " fill="#A5ADA7" transform="translate(125,73)"/>
<path d="M0 0 C0.99 0 1.98 0 3 0 C3 0.66 3 1.32 3 2 C3.7425 1.7525 4.485 1.505 5.25 1.25 C6.1575 1.1675 7.065 1.085 8 1 C9.37562854 2.28965176 10.70766393 3.62689293 12 5 C14.64184541 5.79681318 14.64184541 5.79681318 17 6 C17.45375 5.175 17.9075 4.35 18.375 3.5 C18.91125 2.675 19.4475 1.85 20 1 C20.66 1 21.32 1 22 1 C22.33 1.66 22.66 2.32 23 3 C24.65 2.67 26.3 2.34 28 2 C27.67 2.99 27.34 3.98 27 5 C25.35 5.33 23.7 5.66 22 6 C21.34 7.98 20.68 9.96 20 12 C18.68 11.67 17.36 11.34 16 11 C16 11.66 16 12.32 16 13 C11.51556505 12.14421026 8.97273379 9.56082611 5.75 6.5 C5.19570312 5.98824219 4.64140625 5.47648437 4.0703125 4.94921875 C2.68841168 3.65921773 1.34095108 2.33251743 0 1 C0 0.67 0 0.34 0 0 Z " fill="#D6EBF3" transform="translate(10,86)"/>
<path d="M0 0 C0.8971875 0.309375 0.8971875 0.309375 1.8125 0.625 C1.3175 1.016875 0.8225 1.40875 0.3125 1.8125 C-1.66314327 4.19973561 -1.33894359 5.59612814 -1.1875 8.625 C-1.5175 9.615 -1.8475 10.605 -2.1875 11.625 C-1.65555397 14.16518266 -1.65555397 14.16518266 -0.75 16.8125 C-0.46253906 17.71355469 -0.17507812 18.61460938 0.12109375 19.54296875 C0.34925781 20.23003906 0.57742187 20.91710937 0.8125 21.625 C0.1525 21.955 -0.5075 22.285 -1.1875 22.625 C-1.1875 21.965 -1.1875 21.305 -1.1875 20.625 C-1.8475 20.625 -2.5075 20.625 -3.1875 20.625 C-3.1875 21.285 -3.1875 21.945 -3.1875 22.625 C-3.765 22.728125 -4.3425 22.83125 -4.9375 22.9375 C-7.50799158 23.72292798 -9.12407284 24.93004197 -11.1875 26.625 C-11.1875 25.305 -11.1875 23.985 -11.1875 22.625 C-10.5275 22.625 -9.8675 22.625 -9.1875 22.625 C-8.8575 20.975 -8.5275 19.325 -8.1875 17.625 C-7.5275 17.625 -6.8675 17.625 -6.1875 17.625 C-6.15011719 16.49320313 -6.11273438 15.36140625 -6.07421875 14.1953125 C-6.00856918 12.71350795 -5.94212149 11.23173861 -5.875 9.75 C-5.84116211 8.63044922 -5.84116211 8.63044922 -5.80664062 7.48828125 C-5.70938055 5.525396 -5.45707706 3.57171678 -5.1875 1.625 C-2.1875 -0.375 -2.1875 -0.375 0 0 Z " fill="#A2A29D" transform="translate(179.1875,53.375)"/>
<path d="M0 0 C2.25 0.0625 2.25 0.0625 5 1 C9.60223795 6.72170123 9.46467731 11.86204022 9 19 C8.34 19.33 7.68 19.66 7 20 C7 16.7 7 13.4 7 10 C6.67 12.31 6.34 14.62 6 17 C5.67 16.01 5.34 15.02 5 14 C4.01 14 3.02 14 2 14 C2 13.01 2 12.02 2 11 C-0.97 10.505 -0.97 10.505 -4 10 C-2.68 9.67 -1.36 9.34 0 9 C-0.185625 8.443125 -0.37125 7.88625 -0.5625 7.3125 C-1.07551165 4.600867 -0.6640724 2.65628961 0 0 Z " fill="#373738" transform="translate(71,54)"/>
<path d="M0 0 C2.64 0 5.28 0 8 0 C8.12375 0.639375 8.2475 1.27875 8.375 1.9375 C8.58125 2.618125 8.7875 3.29875 9 4 C9.66 4.33 10.32 4.66 11 5 C10.2575 5.2475 9.515 5.495 8.75 5.75 C5.90133031 6.84296181 5.90133031 6.84296181 3.9375 9.125 C2 11 2 11 -2 11 C-2 10.34 -2 9.68 -2 9 C-2.99 9 -3.98 9 -5 9 C-5.66 8.67 -6.32 8.34 -7 8 C-6.67 7.34 -6.34 6.68 -6 6 C-6.66 5.67 -7.32 5.34 -8 5 C-5.525 5.495 -5.525 5.495 -3 6 C-2.01 4.02 -1.02 2.04 0 0 Z " fill="#C2CED6" transform="translate(32,91)"/>
<path d="M0 0 C1.12021481 3.32279933 0.88681157 5.26909001 -0.25 8.5625 C-0.50265625 9.32691406 -0.7553125 10.09132813 -1.015625 10.87890625 C-2.08577529 13.18482533 -2.9613873 14.48074815 -5 16 C-6.32 16 -7.64 16 -9 16 C-9 16.66 -9 17.32 -9 18 C-9.639375 18.268125 -10.27875 18.53625 -10.9375 18.8125 C-13.33131686 19.88667752 -13.33131686 19.88667752 -14 23 C-14.99 23 -15.98 23 -17 23 C-17 23.66 -17 24.32 -17 25 C-18.65 25.66 -20.3 26.32 -22 27 C-22 26.01 -22 25.02 -22 24 C-23.65 23.67 -25.3 23.34 -27 23 C-24.11912454 20.59927045 -21.43595166 18.52708963 -18 17 C-18.33 18.32 -18.66 19.64 -19 21 C-17.865625 20.38125 -16.73125 19.7625 -15.5625 19.125 C-14.92441406 18.77695313 -14.28632812 18.42890625 -13.62890625 18.0703125 C-11.83381685 17.08589976 -11.83381685 17.08589976 -11 15 C-10.175 14.71125 -9.35 14.4225 -8.5 14.125 C-7.675 13.75375 -6.85 13.3825 -6 13 C-5.26676204 10.98491642 -5.26676204 10.98491642 -5 9 C-4.34 8.67 -3.68 8.34 -3 8 C-2.28293018 6.01751285 -1.61709587 4.01584651 -1 2 C-0.67 1.34 -0.34 0.68 0 0 Z " fill="#899BB1" transform="translate(94,63)"/>
<path d="M0 0 C0.66 0 1.32 0 2 0 C2 2.31 2 4.62 2 7 C2.99 7 3.98 7 5 7 C5 6.34 5 5.68 5 5 C5.66 5 6.32 5 7 5 C7 5.66 7 6.32 7 7 C7.99 6.67 8.98 6.34 10 6 C10 6.66 10 7.32 10 8 C11.32 7.67 12.64 7.34 14 7 C13.34 9.31 12.68 11.62 12 14 C10.35 14.33 8.7 14.66 7 15 C7 13.35 7 11.7 7 10 C5.02 10.33 3.04 10.66 1 11 C1.33 12.65 1.66 14.3 2 16 C1.01 15.34 0.02 14.68 -1 14 C-1.328125 11.25 -1.328125 11.25 -1.25 8 C-1.23453125 6.9275 -1.2190625 5.855 -1.203125 4.75 C-1 2 -1 2 0 0 Z " fill="#353A47" transform="translate(137,55)"/>
<path d="M0 0 C1.051875 0.1546875 1.051875 0.1546875 2.125 0.3125 C1.465 1.9625 0.805 3.6125 0.125 5.3125 C-2.185 5.6425 -4.495 5.9725 -6.875 6.3125 C-6.875 6.9725 -6.875 7.6325 -6.875 8.3125 C-11.50474991 10.08651632 -15.83544843 10.70891621 -20.75 10.9375 C-21.43835937 10.97617188 -22.12671875 11.01484375 -22.8359375 11.0546875 C-24.51523246 11.14798166 -26.19507767 11.23128238 -27.875 11.3125 C-25.90910563 8.56480208 -24.67432009 8.2691689 -21.29296875 7.5390625 C-19.17925376 7.22091161 -17.06426531 6.93772127 -14.94335938 6.671875 C-8.904592 5.74544109 -5.41043285 0.58809053 0 0 Z " fill="#9BAABB" transform="translate(62.875,89.6875)"/>
<path d="M0 0 C0.66 0 1.32 0 2 0 C2.33 0.99 2.66 1.98 3 3 C3.66 2.67 4.32 2.34 5 2 C4.67 2.99 4.34 3.98 4 5 C3.34 5 2.68 5 2 5 C1.87882812 6.13179687 1.75765625 7.26359375 1.6328125 8.4296875 C1.46399724 9.91151031 1.29470145 11.39327842 1.125 12.875 C1.00705078 13.99455078 1.00705078 13.99455078 0.88671875 15.13671875 C0.2265625 20.7734375 0.2265625 20.7734375 -2 23 C-2.66 22.01 -3.32 21.02 -4 20 C-3.01 19.67 -2.02 19.34 -1 19 C-1.33 17.68 -1.66 16.36 -2 15 C-2.99 15.495 -2.99 15.495 -4 16 C-4 12.04 -4 8.08 -4 4 C-3.01 4 -2.02 4 -1 4 C-0.67 2.68 -0.34 1.36 0 0 Z " fill="#E4E1DD" transform="translate(44,55)"/>
<path d="M0 0 C0.33 0.99 0.66 1.98 1 3 C-3.19067785 10.4142762 -8.79701116 14.79974596 -16 19 C-16 18.01 -16 17.02 -16 16 C-15.01 15.67 -14.02 15.34 -13 15 C-12.7834375 14.0409375 -12.7834375 14.0409375 -12.5625 13.0625 C-12.2840625 12.0415625 -12.2840625 12.0415625 -12 11 C-11.38125 10.71125 -10.7625 10.4225 -10.125 10.125 C-7.03948202 8.49149048 -6.35580128 6.11834294 -5 3 C-3.68 3 -2.36 3 -1 3 C-0.67 2.01 -0.34 1.02 0 0 Z " fill="#29587B" transform="translate(90,76)"/>
<path d="M0 0 C0.33 0 0.66 0 1 0 C0.67 2.97 0.34 5.94 0 9 C-3.62326739 10.2077558 -4.64146369 9.54311128 -8 8 C-8 8.99 -8 9.98 -8 11 C-7.01 11.33 -6.02 11.66 -5 12 C-5 13.65 -5 15.3 -5 17 C-8.92072539 13.24974093 -8.92072539 13.24974093 -9.1328125 9.90625 C-9.13023438 9.1121875 -9.12765625 8.318125 -9.125 7.5 C-9.12757812 6.7059375 -9.13015625 5.911875 -9.1328125 5.09375 C-9 3 -9 3 -8 1 C-7.34 1 -6.68 1 -6 1 C-6 1.66 -6 2.32 -6 3 C-3.03 3.495 -3.03 3.495 0 4 C0 2.68 0 1.36 0 0 Z " fill="#464546" transform="translate(54,66)"/>
<path d="M0 0 C2.31 0.66 4.62 1.32 7 2 C6.01 2.495 6.01 2.495 5 3 C5.185625 3.556875 5.37125 4.11375 5.5625 4.6875 C6.07551165 7.399133 5.6640724 9.34371039 5 12 C3.68 12 2.36 12 1 12 C1 12.66 1 13.32 1 14 C-2.41158256 12.86280581 -3.11854601 11.95657056 -5 9 C-5 8.34 -5 7.68 -5 7 C-4.01 7 -3.02 7 -2 7 C-2 7.66 -2 8.32 -2 9 C-1.34 9 -0.68 9 0 9 C0.33 7.68 0.66 6.36 1 5 C1.66 5.33 2.32 5.66 3 6 C3 4.68 3 3.36 3 2 C2.01 1.67 1.02 1.34 0 1 C0 0.67 0 0.34 0 0 Z " fill="#757672" transform="translate(66,51)"/>
<path d="M0 0 C0.33 0 0.66 0 1 0 C2.66251802 5.57432514 3.18609365 9.3067505 2 15 C1.67 15 1.34 15 1 15 C1 13.35 1 11.7 1 10 C-0.65 10 -2.3 10 -4 10 C-4 12.97 -4 15.94 -4 19 C-4.66 18.67 -5.32 18.34 -6 18 C-6.13504138 16.06440687 -6.23201129 14.126128 -6.3125 12.1875 C-6.37050781 11.10855469 -6.42851563 10.02960937 -6.48828125 8.91796875 C-6.32714844 7.95503906 -6.16601562 6.99210937 -6 6 C-3.54296875 4.30078125 -3.54296875 4.30078125 -1 3 C-0.67 2.01 -0.34 1.02 0 0 Z " fill="#F6F5F4" transform="translate(115,37)"/>
<path d="M0 0 C1.32 0.66 2.64 1.32 4 2 C3.67 2.66 3.34 3.32 3 4 C3.86625 3.690625 4.7325 3.38125 5.625 3.0625 C11.57013265 1.32696438 17.85139382 1.32405969 24 1 C24 1.99 24 2.98 24 4 C21.81347261 4.33965474 19.62571975 4.67142477 17.4375 5 C15.61025391 5.2784375 15.61025391 5.2784375 13.74609375 5.5625 C10.09589437 5.98880066 6.66927445 6.21583967 3 6 C0.5625 4 0.5625 4 -1 2 C-0.67 1.34 -0.34 0.68 0 0 Z " fill="#6D99C4" transform="translate(27,98)"/>
<path d="M0 0 C7 1 7 1 10.1875 1.5 C14.43904083 2.05757913 18.65798985 2.33880667 22.9375 2.5625 C23.71673828 2.60568359 24.49597656 2.64886719 25.29882812 2.69335938 C27.19907117 2.79828077 29.09951669 2.8995245 31 3 C28.1532085 5.8467915 25.95029804 5.2903266 22.05664062 5.32226562 C21.15107422 5.31904297 20.24550781 5.31582031 19.3125 5.3125 C18.42626953 5.32861328 17.54003906 5.34472656 16.62695312 5.36132812 C10.97129745 5.3655144 6.99729677 4.69185973 2 2 C1.34 1.34 0.68 0.68 0 0 Z " fill="#5C6F7D" transform="translate(137,87)"/>
<path d="M0 0 C-6.38087774 4.2539185 -6.38087774 4.2539185 -10.1328125 4.265625 C-11.34324219 4.26949219 -11.34324219 4.26949219 -12.578125 4.2734375 C-13.41859375 4.26570313 -14.2590625 4.25796875 -15.125 4.25 C-16.35089844 4.26160156 -16.35089844 4.26160156 -17.6015625 4.2734375 C-23.30118637 4.25540072 -28.4936915 3.45574793 -34 2 C-29.16701805 0.59473611 -24.48986449 1.30213988 -19.55078125 1.77148438 C-12.70978663 2.30193583 -6.7047767 -0.41904854 0 0 Z " fill="#7B8C95" transform="translate(176,86)"/>
<path d="M0 0 C0.66 0.66 1.32 1.32 2 2 C1.625 4.625 1.625 4.625 1 7 C-0.11375 7.12375 -1.2275 7.2475 -2.375 7.375 C-6.03103677 7.6465813 -6.03103677 7.6465813 -8 10 C-12.00390625 5.60546875 -12.00390625 5.60546875 -13 4 C-12.67 3.01 -12.34 2.02 -12 1 C-10.02 1 -8.04 1 -6 1 C-5.67 2.32 -5.34 3.64 -5 5 C-3.68 4.67 -2.36 4.34 -1 4 C-0.67 2.68 -0.34 1.36 0 0 Z " fill="#191C22" transform="translate(150,64)"/>
<path d="M0 0 C4.95 0 9.9 0 15 0 C15 0.66 15 1.32 15 2 C15.66 2 16.32 2 17 2 C17 2.66 17 3.32 17 4 C13.70303895 5.09898702 12.59505097 4.87124444 9.3125 4.0625 C8.50425781 3.86785156 7.69601563 3.67320313 6.86328125 3.47265625 C6.24839844 3.31667969 5.63351563 3.16070312 5 3 C4.67 3.66 4.34 4.32 4 5 C2.68 4.34 1.36 3.68 0 3 C0 2.01 0 1.02 0 0 Z " fill="#CACAC2" transform="translate(121,71)"/>
<path d="M0 0 C0.66 0 1.32 0 2 0 C2 0.99 2 1.98 2 3 C1.01 3.495 1.01 3.495 0 4 C-0.65555119 6.52733235 -0.65555119 6.52733235 -1 9 C-2.65 9.33 -4.3 9.66 -6 10 C-5.67 9.01 -5.34 8.02 -5 7 C-5.94101563 6.96261719 -6.88203125 6.92523438 -7.8515625 6.88671875 C-9.09679687 6.82097656 -10.34203125 6.75523438 -11.625 6.6875 C-12.85476562 6.62949219 -14.08453125 6.57148437 -15.3515625 6.51171875 C-19.1423425 5.98003547 -21.70029671 4.89352204 -25 3 C-23.25 2.375 -23.25 2.375 -21 2 C-20.14921875 2.4640625 -20.14921875 2.4640625 -19.28125 2.9375 C-16.25421247 4.3473531 -13.57263107 4.42564214 -10.25 4.625 C-9.07953125 4.69976562 -7.9090625 4.77453125 -6.703125 4.8515625 C-5.36507812 4.92503906 -5.36507812 4.92503906 -4 5 C-4 4.34 -4 3.68 -4 3 C-2.68 2.67 -1.36 2.34 0 2 C0 1.34 0 0.68 0 0 Z " fill="#868685" transform="translate(168,73)"/>
<path d="M0 0 C3.465 1.485 3.465 1.485 7 3 C7.33 2.34 7.66 1.68 8 1 C8 2.65 8 4.3 8 6 C7.01 6.33 6.02 6.66 5 7 C5 7.99 5 8.98 5 10 C3.02 10 1.04 10 -1 10 C-1.125 2.25 -1.125 2.25 0 0 Z " fill="#262626" transform="translate(154,61)"/>
<path d="M0 0 C2.125 0.375 2.125 0.375 4 1 C3.505 1.391875 3.01 1.78375 2.5 2.1875 C0.52435673 4.57473561 0.84855641 5.97112814 1 9 C0.67 9.99 0.34 10.98 0 12 C0.53194603 14.54018266 0.53194603 14.54018266 1.4375 17.1875 C1.72496094 18.08855469 2.01242188 18.98960938 2.30859375 19.91796875 C2.53675781 20.60503906 2.76492187 21.29210937 3 22 C2.34 22.33 1.68 22.66 1 23 C1 22.34 1 21.68 1 21 C0.34 21 -0.32 21 -1 21 C-1.97614134 16.90020638 -2.16532221 13.02184446 -2.1875 8.8125 C-2.20167969 7.58144531 -2.21585938 6.35039063 -2.23046875 5.08203125 C-2 2 -2 2 0 0 Z " fill="#D0CEC6" transform="translate(177,53)"/>
<path d="M0 0 C0.66 0.33 1.32 0.66 2 1 C1.125 7.875 1.125 7.875 0 9 C-1.65 9 -3.3 9 -5 9 C-5.33 12.63 -5.66 16.26 -6 20 C-6.33 20 -6.66 20 -7 20 C-7.32429071 13.92255186 -7.49866785 9.24800177 -4 4 C-1.8125 1.625 -1.8125 1.625 0 0 Z " fill="#6F7D90" transform="translate(142,46)"/>
<path d="M0 0 C2.375 0.1875 2.375 0.1875 5 1 C6.3125 3.5625 6.3125 3.5625 7 6 C5.58480285 8.0343459 4.45017877 8.90410393 2.01953125 9.421875 C0.01823046 9.66273952 -1.9909944 9.83532741 -4 10 C-2.68 9.67 -1.36 9.34 0 9 C-0.185625 8.443125 -0.37125 7.88625 -0.5625 7.3125 C-1.07551165 4.600867 -0.6640724 2.65628961 0 0 Z " fill="#3A3A3B" transform="translate(71,54)"/>
<path d="M0 0 C5.05531868 0.77774134 10.01716284 1.85948394 15 3 C14.67 3.66 14.34 4.32 14 5 C9.05 5 4.1 5 -1 5 C-1 4.34 -1 3.68 -1 3 C-0.34 2.67 0.32 2.34 1 2 C0.67 1.34 0.34 0.68 0 0 Z " fill="#BEBEBB" transform="translate(143,77)"/>
<path d="M0 0 C0.99 0 1.98 0 3 0 C2.01 2.97 1.02 5.94 0 9 C-0.66 9 -1.32 9 -2 9 C-2.33 10.65 -2.66 12.3 -3 14 C-3.99 14.33 -4.98 14.66 -6 15 C-6 13.68 -6 12.36 -6 11 C-5.34 11 -4.68 11 -4 11 C-3.87625 10.278125 -3.7525 9.55625 -3.625 8.8125 C-2.14285714 2.14285714 -2.14285714 2.14285714 0 0 Z " fill="#B2B5B3" transform="translate(91,63)"/>
<path d="M0 0 C0.66 0 1.32 0 2 0 C2.19860088 6.95103087 0.56112766 11.14137063 -3 17 C-3.33 17 -3.66 17 -4 17 C-4.48736475 10.29873464 -3.07708804 5.93438408 0 0 Z " fill="#D0E5F1" transform="translate(115,21)"/>
<path d="M0 0 C5.61 0 11.22 0 17 0 C14.33333333 1.33333333 11.66666667 2.66666667 9 4 C8.67 3.67 8.34 3.34 8 3 C7.4225 3.350625 6.845 3.70125 6.25 4.0625 C3.64198224 5.14917407 2.60582371 4.93065133 0 4 C0 2.68 0 1.36 0 0 Z " fill="#F4FBF8" transform="translate(140,4)"/>
<path d="M0 0 C0.33 0.66 0.66 1.32 1 2 C2.32 1.67 3.64 1.34 5 1 C4.34 3.31 3.68 5.62 3 8 C1.35 8.33 -0.3 8.66 -2 9 C-2 7.35 -2 5.7 -2 4 C-3.98 4.33 -5.96 4.66 -8 5 C-5.77077045 2.77077045 -3.90864722 2.11871047 -1 1 C-0.67 0.67 -0.34 0.34 0 0 Z " fill="#2F313A" transform="translate(146,61)"/>
<path d="M0 0 C3.3 0 6.6 0 10 0 C8 4 8 4 6 5 C3.89768123 5.09751547 1.79207377 5.12976687 -0.3125 5.125 C-1.44300781 5.12757812 -2.57351562 5.13015625 -3.73828125 5.1328125 C-6.62153596 5.01541051 -9.1990855 4.66212988 -12 4 C-12 3.67 -12 3.34 -12 3 C-7.38 2.67 -2.76 2.34 2 2 C1.34 1.34 0.68 0.68 0 0 Z " fill="#B2B2B1" transform="translate(155,79)"/>
<path d="M0 0 C0.99 0.33 1.98 0.66 3 1 C3 1.66 3 2.32 3 3 C4.32 3.33 5.64 3.66 7 4 C4.69 4.66 2.38 5.32 0 6 C0.99 6.33 1.98 6.66 3 7 C3 7.66 3 8.32 3 9 C0.69 8.67 -1.62 8.34 -4 8 C-4.33 9.32 -4.66 10.64 -5 12 C-6.09658936 8.71023192 -5.79953138 7.28696233 -5 4 C-3.35 4 -1.7 4 0 4 C0 2.68 0 1.36 0 0 Z " fill="#1E1B22" transform="translate(60,62)"/>
<path d="M0 0 C2.31 0.66 4.62 1.32 7 2 C6.67 3.98 6.34 5.96 6 8 C6.66 8 7.32 8 8 8 C8 8.99 8 9.98 8 11 C7.01 11 6.02 11 5 11 C4.67 11.66 4.34 12.32 4 13 C2.38050989 10.42786866 1.95591249 9.32330841 2.375 6.25 C2.58125 5.5075 2.7875 4.765 3 4 C2.01 3.67 1.02 3.34 0 3 C0 2.01 0 1.02 0 0 Z " fill="#3D3D42" transform="translate(147,49)"/>
<path d="M0 0 C0.99 0 1.98 0 3 0 C3 0.66 3 1.32 3 2 C4.65 1.67 6.3 1.34 8 1 C10.0625 3.3125 10.0625 3.3125 12 6 C11.67 6.99 11.34 7.98 11 9 C5.70841026 7.59928507 3.22521956 4.14512755 0 0 Z " fill="#DDE9F4" transform="translate(10,86)"/>
<path d="M0 0 C0.7425 0.185625 1.485 0.37125 2.25 0.5625 C4.89520184 1.18005589 4.89520184 1.18005589 7 0.4375 C9.79941154 -0.17487127 11.467161 0.80393714 14 2 C12.25 4 12.25 4 10 6 C8.68 6 7.36 6 6 6 C6 5.34 6 4.68 6 4 C5.01 4 4.02 4 3 4 C2.34 3.67 1.68 3.34 1 3 C1.33 2.34 1.66 1.68 2 1 C1.34 0.67 0.68 0.34 0 0 Z " fill="#A9D6F5" transform="translate(24,96)"/>
<path d="M0 0 C3.3 0 6.6 0 10 0 C10.33 0.66 10.66 1.32 11 2 C10.67 2.99 10.34 3.98 10 5 C10 5.99 10 6.98 10 8 C8.68 8 7.36 8 6 8 C6 7.34 6 6.68 6 6 C5.01 5.34 4.02 4.68 3 4 C3.33 3.34 3.66 2.68 4 2 C2.68 2 1.36 2 0 2 C0 1.34 0 0.68 0 0 Z " fill="#070711" transform="translate(57,77)"/>
<path d="M0 0 C0.33 0 0.66 0 1 0 C1 1.98 1 3.96 1 6 C0.34 6 -0.32 6 -1 6 C-1.0825 6.53625 -1.165 7.0725 -1.25 7.625 C-2.26376098 10.8352431 -4.07160549 13.26292392 -6 16 C-8 13 -8 13 -7.875 10.9375 C-7 9 -7 9 -5.125 8.1875 C-1.78123528 6.3189256 -1.30653783 3.52765213 0 0 Z " fill="#B9BAC1" transform="translate(196,63)"/>
<path d="M0 0 C0.33 0 0.66 0 1 0 C1.10957031 0.74765625 1.21914062 1.4953125 1.33203125 2.265625 C1.49058594 3.25046875 1.64914063 4.2353125 1.8125 5.25 C1.96332031 6.22453125 2.11414063 7.1990625 2.26953125 8.203125 C3.03668275 11.14045372 4.11758337 12.66889777 6 15 C6 15.66 6 16.32 6 17 C5.34 17 4.68 17 4 17 C4 16.34 4 15.68 4 15 C3.34 15 2.68 15 2 15 C2 14.34 2 13.68 2 13 C0.35 13 -1.3 13 -3 13 C-3 11.68 -3 10.36 -3 9 C-2.01 9 -1.02 9 0 9 C0 6.03 0 3.06 0 0 Z " fill="#DDDEDF" transform="translate(134,58)"/>
<path d="M0 0 C0.99 0 1.98 0 3 0 C3.12375 0.969375 3.2475 1.93875 3.375 2.9375 C3.684375 4.4534375 3.684375 4.4534375 4 6 C4.66 6.33 5.32 6.66 6 7 C5.67 7.99 5.34 8.98 5 10 C2.9375 10.6875 2.9375 10.6875 1 11 C-0.20272819 8.59454362 -0.10071472 7.05003047 -0.0625 4.375 C-0.05347656 3.55773438 -0.04445313 2.74046875 -0.03515625 1.8984375 C-0.02355469 1.27195313 -0.01195313 0.64546875 0 0 Z " fill="#EAE4DA" transform="translate(111,47)"/>
<path d="M0 0 C1.37478516 0.01740234 1.37478516 0.01740234 2.77734375 0.03515625 C3.69644531 0.04417969 4.61554687 0.05320312 5.5625 0.0625 C6.27277344 0.07410156 6.98304687 0.08570312 7.71484375 0.09765625 C6.08984375 2.59765625 6.08984375 2.59765625 3.71484375 5.09765625 C0.46484375 5.41015625 0.46484375 5.41015625 -2.28515625 5.09765625 C-2.84765625 3.16015625 -2.84765625 3.16015625 -3.28515625 1.09765625 C-2.28515625 0.09765625 -2.28515625 0.09765625 0 0 Z " fill="#131217" transform="translate(53.28515625,78.90234375)"/>
<path d="M0 0 C2.15341979 2.15341979 2.64111965 3.03923709 3 6 C2.01 7.485 2.01 7.485 1 9 C0.34 9 -0.32 9 -1 9 C-1.33 10.32 -1.66 11.64 -2 13 C-2.33 9.37 -2.66 5.74 -3 2 C-2.01 1.34 -1.02 0.68 0 0 Z M4 3 C6 4 6 4 6 4 Z " fill="#D6D8D4" transform="translate(83,60)"/>
<path d="M0 0 C0 0.33 0 0.66 0 1 C-14.31918936 4.61747942 -14.31918936 4.61747942 -20 4 C-20.99 3.34 -21.98 2.68 -23 2 C-7.25512528 -0.29612756 -7.25512528 -0.29612756 0 0 Z " fill="#5287B9" transform="translate(53,102)"/>
<path d="M0 0 C2.625 0.375 2.625 0.375 5 1 C4.67 2.32 4.34 3.64 4 5 C2.35 5.33 0.7 5.66 -1 6 C-1 5.34 -1 4.68 -1 4 C-4.3 4.66 -7.6 5.32 -11 6 C-10.67 5.34 -10.34 4.68 -10 4 C-8.22265625 3.4375 -8.22265625 3.4375 -6.0625 3 C-3.09189285 2.39617423 -2.21308826 2.21308826 0 0 Z " fill="#AEADA8" transform="translate(174,78)"/>
<path d="M0 0 C-1.01953125 1.45703125 -1.01953125 1.45703125 -3 3 C-5.62939205 3.37644848 -8.05072472 3.60133087 -10.6875 3.6875 C-11.38939453 3.72166016 -12.09128906 3.75582031 -12.81445312 3.79101562 C-14.54241387 3.87329947 -16.27118072 3.9383324 -18 4 C-15.35693743 0.55170332 -12.61146774 0.32829274 -8.4375 -0.25 C-7.28121094 -0.42015625 -6.12492187 -0.5903125 -4.93359375 -0.765625 C-2 -1 -2 -1 0 0 Z " fill="#90AFCD" transform="translate(53,97)"/>
<path d="M0 0 C2.64 0.33 5.28 0.66 8 1 C8 1.66 8 2.32 8 3 C8.66 3 9.32 3 10 3 C10 3.66 10 4.32 10 5 C9.21625 5.103125 8.4325 5.20625 7.625 5.3125 C4.66954819 5.77595022 4.66954819 5.77595022 3 9 C2.87625 8.195625 2.7525 7.39125 2.625 6.5625 C2.315625 5.2940625 2.315625 5.2940625 2 4 C1.34 3.67 0.68 3.34 0 3 C0 2.01 0 1.02 0 0 Z " fill="#232224" transform="translate(46,74)"/>
<path d="M0 0 C0.99 0 1.98 0 3 0 C3 0.66 3 1.32 3 2 C-0.37097383 3.49821059 -2.20442119 4 -6 4 C-6 4.66 -6 5.32 -6 6 C-6.66 6 -7.32 6 -8 6 C-8 6.66 -8 7.32 -8 8 C-9.65 8.33 -11.3 8.66 -13 9 C-13 7.68 -13 6.36 -13 5 C-11.35 5 -9.7 5 -8 5 C-8 4.34 -8 3.68 -8 3 C-6.865625 2.690625 -5.73125 2.38125 -4.5625 2.0625 C-1.21224901 1.37075469 -1.21224901 1.37075469 0 0 Z " fill="#7693B1" transform="translate(64,93)"/>
<path d="M0 0 C0.33 0.66 0.66 1.32 1 2 C-8.84466019 11 -8.84466019 11 -16 11 C-16 10.34 -16 9.68 -16 9 C-14.35 9 -12.7 9 -11 9 C-11 8.34 -11 7.68 -11 7 C-9.9275 6.401875 -8.855 5.80375 -7.75 5.1875 C-5.01041007 3.62598931 -2.46743122 1.97394497 0 0 Z " fill="#56769B" transform="translate(76,89)"/>
<path d="M0 0 C0.33 1.32 0.66 2.64 1 4 C-2.79692186 6.82561627 -5.18569279 8.56638908 -10 8 C-9.67 6.68 -9.34 5.36 -9 4 C-6.36 3.67 -3.72 3.34 -1 3 C-0.67 2.01 -0.34 1.02 0 0 Z " fill="#A0A8B0" transform="translate(188,76)"/>
<path d="M0 0 C1.12021481 3.32279933 0.88681157 5.26909001 -0.25 8.5625 C-0.50265625 9.32691406 -0.7553125 10.09132813 -1.015625 10.87890625 C-2.06533759 13.14078694 -3.04507877 14.46006205 -5 16 C-7.1875 15.6875 -7.1875 15.6875 -9 15 C-8.01 14.34 -7.02 13.68 -6 13 C-5.63837971 11.67405895 -5.30271961 10.34061543 -5 9 C-4.34 8.67 -3.68 8.34 -3 8 C-2.28293018 6.01751285 -1.61709587 4.01584651 -1 2 C-0.67 1.34 -0.34 0.68 0 0 Z " fill="#7B8C99" transform="translate(94,63)"/>
<path d="M0 0 C0.66 0 1.32 0 2 0 C2.33 0.66 2.66 1.32 3 2 C4.65 1.67 6.3 1.34 8 1 C7.67 1.99 7.34 2.98 7 4 C5.824375 4.12375 5.824375 4.12375 4.625 4.25 C1.85250896 4.72806339 1.85250896 4.72806339 0.6875 7.0625 C0.3471875 8.0215625 0.3471875 8.0215625 0 9 C-0.99 8.67 -1.98 8.34 -3 8 C-2.37240135 5.07120629 -1.41377341 2.63904371 0 0 Z " fill="#D7DFEE" transform="translate(30,87)"/>
<path d="M0 0 C1.32 0 2.64 0 4 0 C4 0.66 4 1.32 4 2 C6.64 2 9.28 2 12 2 C11.01 2.33 10.02 2.66 9 3 C9.33 3.66 9.66 4.32 10 5 C12.52733235 5.65555119 12.52733235 5.65555119 15 6 C15 6.33 15 6.66 15 7 C10.2459141 7.33168041 7.94353797 6.59443287 4 4 C1.80869466 3.30420546 1.80869466 3.30420546 0 3 C0 2.01 0 1.02 0 0 Z " fill="#ACB3AD" transform="translate(133,77)"/>
<path d="M0 0 C0.33 0 0.66 0 1 0 C1.54470737 7.9587799 0.48901845 13.81947541 -3 21 C-3.95827504 17.95501389 -3.99431517 15.97726069 -3.22265625 12.890625 C-3.03896484 12.13652344 -2.85527344 11.38242187 -2.66601562 10.60546875 C-2.36727539 9.43951172 -2.36727539 9.43951172 -2.0625 8.25 C-1.86720703 7.45722656 -1.67191406 6.66445313 -1.47070312 5.84765625 C-0.98875921 3.89637115 -0.49547912 1.94789217 0 0 Z " fill="#DBE3EE" transform="translate(201,44)"/>
<path d="M0 0 C2.62527189 -0.05382106 5.24944713 -0.09358313 7.875 -0.125 C8.62136719 -0.14175781 9.36773437 -0.15851562 10.13671875 -0.17578125 C12.09194461 -0.1933959 14.04742021 -0.10320189 16 0 C16.66 0.66 17.32 1.32 18 2 C9.585 2.495 9.585 2.495 1 3 C0.67 2.01 0.34 1.02 0 0 Z " fill="#B5DDF7" transform="translate(45,12)"/>
<path d="M0 0 C1.34348795 2.6869759 1.05965559 4.75230672 1 7.75 C0.95950209 11.96178285 1.08162664 15.86731988 2 20 C1.01 19.34 0.02 18.68 -1 18 C-1 17.34 -1 16.68 -1 16 C-2.98 16.99 -2.98 16.99 -5 18 C-4.505 16.515 -4.505 16.515 -4 15 C-3.01 15 -2.02 15 -1 15 C-1.01160156 14.00097656 -1.02320313 13.00195312 -1.03515625 11.97265625 C-1.04869141 10.03712891 -1.04869141 10.03712891 -1.0625 8.0625 C-1.07410156 6.77472656 -1.08570313 5.48695312 -1.09765625 4.16015625 C-1 1 -1 1 0 0 Z " fill="#CACAC5" transform="translate(45,64)"/>
<path d="M0 0 C0.99 0 1.98 0 3 0 C3 0.66 3 1.32 3 2 C3.66 2 4.32 2 5 2 C5.33 1.34 5.66 0.68 6 0 C6 1.32 6 2.64 6 4 C6.66 4 7.32 4 8 4 C8.33 3.01 8.66 2.02 9 1 C9.33 2.32 9.66 3.64 10 5 C8.68 5 7.36 5 6 5 C6 5.66 6 6.32 6 7 C2.58841744 5.86280581 1.88145399 4.95657056 0 2 C0 1.34 0 0.68 0 0 Z " fill="#6B6B6D" transform="translate(61,58)"/>
<path d="M0 0 C0.33 0.66 0.66 1.32 1 2 C0.11225824 4.59179778 -0.63333122 5.76144441 -2.9453125 7.265625 C-3.66460937 7.59046875 -4.38390625 7.9153125 -5.125 8.25 C-5.84945312 8.58515625 -6.57390625 8.9203125 -7.3203125 9.265625 C-8.15175781 9.62914063 -8.15175781 9.62914063 -9 10 C-8.34 8.68 -7.68 7.36 -7 6 C-6.34 6 -5.68 6 -5 6 C-4.9175 5.38125 -4.835 4.7625 -4.75 4.125 C-4 2 -4 2 -1.9375 0.75 C-1.298125 0.5025 -0.65875 0.255 0 0 Z " fill="#436587" transform="translate(82,85)"/>
<path d="M0 0 C0.66 0 1.32 0 2 0 C2 0.66 2 1.32 2 2 C2.66 2 3.32 2 4 2 C4 2.99 4 3.98 4 5 C3.34 5 2.68 5 2 5 C2 6.32 2 7.64 2 9 C0.68 9.33 -0.64 9.66 -2 10 C-2 8.68 -2 7.36 -2 6 C-1.34 6 -0.68 6 0 6 C-0.2784375 4.7934375 -0.2784375 4.7934375 -0.5625 3.5625 C-0.706875 2.716875 -0.85125 1.87125 -1 1 C-0.67 0.67 -0.34 0.34 0 0 Z " fill="#595355" transform="translate(54,57)"/>
<path d="M0 0 C1.258125 -0.04125 2.51625 -0.0825 3.8125 -0.125 C4.52019531 -0.14820313 5.22789063 -0.17140625 5.95703125 -0.1953125 C8 0 8 0 11 2 C11 3.32 11 4.64 11 6 C9.68 6.33 8.36 6.66 7 7 C7 6.01 7 5.02 7 4 C6.34 4 5.68 4 5 4 C5 3.01 5 2.02 5 1 C3.35 1 1.7 1 0 1 C0 0.67 0 0.34 0 0 Z " fill="#54554F" transform="translate(58,51)"/>
<path d="M0 0 C2.375 0.25 2.375 0.25 5 1 C6.3125 3.0625 6.3125 3.0625 7 5 C5 5 5 5 3.375 3.5 C2.92125 3.005 2.4675 2.51 2 2 C2 3.32 2 4.64 2 6 C0.68 6 -0.64 6 -2 6 C-2 4.68 -2 3.36 -2 2 C-1.34 2 -0.68 2 0 2 C0 1.34 0 0.68 0 0 Z " fill="#322F34" transform="translate(58,60)"/>
<path d="M0 0 C1.32 0.33 2.64 0.66 4 1 C3.34 1 2.68 1 2 1 C2 1.66 2 2.32 2 3 C2.99 3 3.98 3 5 3 C5 3.99 5 4.98 5 6 C3.68 6.33 2.36 6.66 1 7 C1 6.34 1 5.68 1 5 C0.01 4.67 -0.98 4.34 -2 4 C-1.34 2.68 -0.68 1.36 0 0 Z " fill="#BCD7E2" transform="translate(32,91)"/>
<path d="M0 0 C2.5 1.375 2.5 1.375 5 3 C5 3.66 5 4.32 5 5 C3.68 5 2.36 5 1 5 C1.33 6.32 1.66 7.64 2 9 C1.01 9.33 0.02 9.66 -1 10 C-1.125 2.25 -1.125 2.25 0 0 Z " fill="#1C1C1C" transform="translate(154,61)"/>
<path d="M0 0 C2 1 2 1 4 4 C2.68 4.33 1.36 4.66 0 5 C0 5.99 0 6.98 0 8 C-0.66 8 -1.32 8 -2 8 C-2.6875 5.6875 -2.6875 5.6875 -3 3 C-1.5625 1.1875 -1.5625 1.1875 0 0 Z " fill="#5F6870" transform="translate(146,44)"/>
<path d="M0 0 C0.99 0.33 1.98 0.66 3 1 C3.33 1.99 3.66 2.98 4 4 C3.34 4 2.68 4 2 4 C2 6.97 2 9.94 2 13 C1.34 12.67 0.68 12.34 0 12 C0 8.04 0 4.08 0 0 Z " fill="#F0EDEC" transform="translate(109,43)"/>
<path d="M0 0 C-1.17808052 3.3529984 -2.19406612 5.7552529 -5 8 C-5.99 8.33 -6.98 8.66 -8 9 C-7.53918323 4.85264908 -4.48412936 0 0 0 Z " fill="#F0F9FE" transform="translate(21,25)"/>
<path d="M0 0 C2.88437779 1.29299694 4.87219421 2.65941363 7 5 C4.69 5.33 2.38 5.66 0 6 C-1.125 2.25 -1.125 2.25 0 0 Z " fill="#DDE4F2" transform="translate(71,18)"/>
<path d="M0 0 C1.98 0 3.96 0 6 0 C6.33 0.66 6.66 1.32 7 2 C8.64363134 2.72159424 10.31050386 3.39351421 12 4 C12 4.33 12 4.66 12 5 C8.8125 5.3125 8.8125 5.3125 5 5 C2.0625 2.5 2.0625 2.5 0 0 Z " fill="#818E8C" transform="translate(130,82)"/>
<path d="M0 0 C1.2065625 0.0309375 1.2065625 0.0309375 2.4375 0.0625 C2.7675 1.7125 3.0975 3.3625 3.4375 5.0625 C2.4475 4.7325 1.4575 4.4025 0.4375 4.0625 C0.4375 3.4025 0.4375 2.7425 0.4375 2.0625 C-0.2225 2.0625 -0.8825 2.0625 -1.5625 2.0625 C-1.5625 3.3825 -1.5625 4.7025 -1.5625 6.0625 C-2.2225 6.0625 -2.8825 6.0625 -3.5625 6.0625 C-3.605221 4.39638095 -3.60313832 2.72867115 -3.5625 1.0625 C-2.5625 0.0625 -2.5625 0.0625 0 0 Z " fill="#2A2A23" transform="translate(60.5625,51.9375)"/>
<path d="M0 0 C0.66 0.33 1.32 0.66 2 1 C0.4375 3.5 0.4375 3.5 -2 6 C-5.75 6.3125 -5.75 6.3125 -9 6 C-6.45368965 3.02930459 -3.57769851 1.5224249 0 0 Z " fill="#BCD6EC" transform="translate(35,14)"/>
<path d="M0 0 C3 0 3 0 6 2 C6 2.66 6 3.32 6 4 C2.535 5.485 2.535 5.485 -1 7 C-0.67 4.69 -0.34 2.38 0 0 Z " fill="#D3D4D0" transform="translate(44,82)"/>
<path d="M0 0 C1.32 0.66 2.64 1.32 4 2 C3.67 2.66 3.34 3.32 3 4 C4.98 3.67 6.96 3.34 9 3 C8.01 4.485 8.01 4.485 7 6 C3.31245243 5.50168276 1.39509338 4.89932357 -1 2 C-0.67 1.34 -0.34 0.68 0 0 Z " fill="#68B1E1" transform="translate(27,98)"/>
<path d="M0 0 C2.125 0.9375 2.125 0.9375 4 2 C1.69 3.65 -0.62 5.3 -3 7 C-3.66 6.67 -4.32 6.34 -5 6 C-2.25 1.125 -2.25 1.125 0 0 Z " fill="#111425" transform="translate(72,78)"/>
<path d="M0 0 C0.33 0.99 0.66 1.98 1 3 C-1.97 5.475 -1.97 5.475 -5 8 C-5 6.68 -5 5.36 -5 4 C-4.34 4 -3.68 4 -3 4 C-3 3.01 -3 2.02 -3 1 C-2.01 0.67 -1.02 0.34 0 0 Z " fill="#BDBEBB" transform="translate(173,72)"/>
<path d="M0 0 C3 4 3 4 2.75 7.625 C2 11 2 11 1 13 C0.34 13 -0.32 13 -1 13 C-0.67 8.71 -0.34 4.42 0 0 Z " fill="#BCC2C6" transform="translate(80,65)"/>
<path d="M0 0 C1.5625 1.25 1.5625 1.25 3 3 C2.6875 5.1875 2.6875 5.1875 2 7 C0.35 6.67 -1.3 6.34 -3 6 C-3 5.01 -3 4.02 -3 3 C-2.01 3 -1.02 3 0 3 C0 2.01 0 1.02 0 0 Z " fill="#494952" transform="translate(148,56)"/>
<path d="M0 0 C-5.625 5 -5.625 5 -9 5 C-7.93411431 2.09303901 -7.29651501 1.15567038 -4.5 -0.3125 C-2 -1 -2 -1 0 0 Z " fill="#AEB8BE" transform="translate(60,91)"/>
<path d="M0 0 C1.32 0.99 2.64 1.98 4 3 C3.67 3.99 3.34 4.98 3 6 C1.35 6.33 -0.3 6.66 -2 7 C-1.42415568 4.61435923 -0.77772405 2.33317216 0 0 Z " fill="#17161B" transform="translate(56,70)"/>
<path d="M0 0 C0.33 0 0.66 0 1 0 C1 1.98 1 3.96 1 6 C-0.65 6.33 -2.3 6.66 -4 7 C-4 5.68 -4 4.36 -4 3 C-3.01 2.67 -2.02 2.34 -1 2 C-0.67 1.34 -0.34 0.68 0 0 Z " fill="#546181" transform="translate(143,52)"/>
<path d="M0 0 C1.32 0.33 2.64 0.66 4 1 C2.25 3 2.25 3 0 5 C-1.32 5 -2.64 5 -4 5 C-3.67 4.01 -3.34 3.02 -3 2 C-2.01 2 -1.02 2 0 2 C0 1.34 0 0.68 0 0 Z " fill="#98C6EA" transform="translate(34,97)"/>
<path d="M0 0 C0 0.99 0 1.98 0 3 C-6.625 3.25 -6.625 3.25 -10 1 C-3.375 0 -3.375 0 0 0 Z " fill="#467DB6" transform="translate(40,103)"/>
<path d="M0 0 C3.3 0 6.6 0 10 0 C7 3 7 3 4.4375 3.375 C3.633125 3.25125 2.82875 3.1275 2 3 C1.34 2.01 0.68 1.02 0 0 Z " fill="#BAB8B9" transform="translate(155,79)"/>
<path d="M0 0 C0.99 0.33 1.98 0.66 3 1 C2.34 1 1.68 1 1 1 C0.67 2.65 0.34 4.3 0 6 C-0.99 6.33 -1.98 6.66 -3 7 C-3 5.68 -3 4.36 -3 3 C-2.34 3 -1.68 3 -1 3 C-0.67 2.01 -0.34 1.02 0 0 Z " fill="#94AAB5" transform="translate(88,71)"/>
<path d="M0 0 C0.66 0.33 1.32 0.66 2 1 C-1.465 3.97 -1.465 3.97 -5 7 C-5.33 6.34 -5.66 5.68 -6 5 C-2.25 1.125 -2.25 1.125 0 0 Z " fill="#F0FBFD" transform="translate(128,11)"/>
<path d="M0 0 C0 0.99 0 1.98 0 3 C-0.99 2.67 -1.98 2.34 -3 2 C-3 2.66 -3 3.32 -3 4 C-4.9375 3.625 -4.9375 3.625 -7 3 C-7.33 2.34 -7.66 1.68 -8 1 C-5.29120665 -0.35439668 -2.99066732 -0.06501451 0 0 Z " fill="#C4E4F8" transform="translate(29,95)"/>
<path d="M0 0 C2.97 0.99 5.94 1.98 9 3 C9 3.33 9 3.66 9 4 C6.03 3.67 3.06 3.34 0 3 C0 2.01 0 1.02 0 0 Z " fill="#040607" transform="translate(143,72)"/>
<path d="M0 0 C0.66 0.33 1.32 0.66 2 1 C0.515 4.96 0.515 4.96 -1 9 C-1.66 8.67 -2.32 8.34 -3 8 C-2.74438677 5.6568787 -2.40729228 3.32156597 -2 1 C-1.34 0.67 -0.68 0.34 0 0 Z " fill="#D0D1CB" transform="translate(93,50)"/>
<path d="M0 0 C0.66 0.33 1.32 0.66 2 1 C1.34 1.66 0.68 2.32 0 3 C-0.6425235 5.06874034 -0.6425235 5.06874034 -1 7 C-2.32 7 -3.64 7 -5 7 C-3.70700306 4.11562221 -2.34058637 2.12780579 0 0 Z " fill="#9EAEC3" transform="translate(142,46)"/>
<path d="M0 0 C1.32 0.33 2.64 0.66 4 1 C4 2.32 4 3.64 4 5 C3.01 5.33 2.02 5.66 1 6 C0.01 5.34 -0.98 4.68 -2 4 C-1.01 4 -0.02 4 1 4 C0.67 2.68 0.34 1.36 0 0 Z " fill="#DBD7CF" transform="translate(164,39)"/>
<path d="M0 0 C0.66 0 1.32 0 2 0 C2.66 1.98 3.32 3.96 4 6 C3.01 6 2.02 6 1 6 C1 5.34 1 4.68 1 4 C0.01 3.67 -0.98 3.34 -2 3 C-1.34 2.01 -0.68 1.02 0 0 Z " fill="#EAE9EF" transform="translate(87,36)"/>
<path d="M0 0 C3.9492568 0.55105909 7.34920174 1.38935371 11 3 C8.49078542 4.25460729 7.61169775 3.86211613 4.9375 3.1875 C4.22464844 3.01605469 3.51179687 2.84460938 2.77734375 2.66796875 C1 2 1 2 0 0 Z " fill="#CCCFCC" transform="translate(143,77)"/>
<path d="M0 0 C0.33 1.32 0.66 2.64 1 4 C1.99 3.67 2.98 3.34 4 3 C4 3.66 4 4.32 4 5 C2.37373596 6.38232443 0.7074998 7.71937515 -1 9 C-2.60031344 5.79937313 -1.03173691 3.27728194 0 0 Z " fill="#AEBDC4" transform="translate(83,69)"/>
<path d="M0 0 C1.65 0.33 3.3 0.66 5 1 C4.67 2.32 4.34 3.64 4 5 C2.68 4.34 1.36 3.68 0 3 C0 2.01 0 1.02 0 0 Z " fill="#B1C0BE" transform="translate(121,71)"/>
<path d="M0 0 C0.66 0 1.32 0 2 0 C2.66 2.31 3.32 4.62 4 7 C3.01 7.495 3.01 7.495 2 8 C2 7.34 2 6.68 2 6 C1.34 6 0.68 6 0 6 C0 4.02 0 2.04 0 0 Z " fill="#BBBCB7" transform="translate(176,68)"/>
<path d="M0 0 C0.99 0.66 1.98 1.32 3 2 C3 3.32 3 4.64 3 6 C1.68 5.34 0.36 4.68 -1 4 C-1 1 -1 1 0 0 Z " fill="#C1CEC4" transform="translate(118,66)"/>
<path d="M0 0 C2.97 0.495 2.97 0.495 6 1 C5.34 2.65 4.68 4.3 4 6 C0 1.125 0 1.125 0 0 Z " fill="#D4D5D0" transform="translate(76,56)"/>
<path d="M0 0 C2.475 0.495 2.475 0.495 5 1 C5 1.66 5 2.32 5 3 C4.34 3 3.68 3 3 3 C2.67 3.99 2.34 4.98 2 6 C1.34 5.34 0.68 4.68 0 4 C0 2.68 0 1.36 0 0 Z " fill="#4E4E4A" transform="translate(71,54)"/>
<path d="M0 0 C3 1 3 1 4 3 C2.02 3.99 0.04 4.98 -2 6 C-2 4.35 -2 2.7 -2 1 C-1.34 0.67 -0.68 0.34 0 0 Z " fill="#E0DDD0" transform="translate(51,51)"/>
<path d="M0 0 C1.32 0.66 2.64 1.32 4 2 C4 2.99 4 3.98 4 5 C2.35 5.33 0.7 5.66 -1 6 C-1.33 5.34 -1.66 4.68 -2 4 C-1.01 3.34 -0.02 2.68 1 2 C0.67 1.34 0.34 0.68 0 0 Z " fill="#55504D" transform="translate(166,46)"/>
<path d="M0 0 C2.31 0 4.62 0 7 0 C6.67 0.66 6.34 1.32 6 2 C3.67843403 2.40729228 1.3431213 2.74438677 -1 3 C-0.67 2.01 -0.34 1.02 0 0 Z " fill="#889FB7" transform="translate(65,90)"/>
<path d="M0 0 C3.125 -0.1875 3.125 -0.1875 6 0 C4.8125 1.5 4.8125 1.5 3 3 C0.3125 3.1875 0.3125 3.1875 -2 3 C-1.34 2.01 -0.68 1.02 0 0 Z " fill="#97A5BE" transform="translate(180,81)"/>
</svg>
