<svg width="66" height="74" viewBox="0 0 66 74" fill="none" xmlns="http://www.w3.org/2000/svg">
<path d="M16.676 37.7218L16.6573 37.8659L16.6667 38.011C16.6744 38.1305 16.654 38.2366 16.6231 38.328L16.6017 38.391L16.5861 38.4557C16.4238 39.1259 16.0418 40.2795 14.8734 41.4879L14.1166 42.2706L14.6263 43.2328L26.6924 66.0085L27.1803 66.9294L28.2135 66.7935L28.0179 65.3063C28.2135 66.7935 28.2136 66.7935 28.2138 66.7935L28.2143 66.7934L28.216 66.7932L28.2218 66.7924L28.243 66.7896L28.3235 66.7787C28.3936 66.7691 28.4966 66.7549 28.6301 66.7359C28.897 66.6981 29.2861 66.6414 29.7791 66.5656C30.7648 66.414 32.1671 66.1857 33.8398 65.8781C37.1621 65.2671 41.5731 64.3393 45.9142 63.0712C49.501 62.3958 53.2488 61.3984 56.2005 59.9229L56.208 59.9191L56.2154 59.9153C61.2475 57.3291 62.9294 54.143 63.0415 51.3176C63.0947 49.9753 62.7855 48.8342 62.472 48.0381C62.4173 47.8991 62.362 47.7695 62.3078 47.65C64.164 44.8158 64.1267 42.19 63.4813 40.2036C63.1405 39.1546 62.6442 38.3205 62.2367 37.7499C62.2169 37.722 62.1972 37.6948 62.1777 37.6681C62.8022 36.2598 63.039 34.9466 62.9739 33.7385C62.8947 32.2699 62.3752 31.0638 61.739 30.1281C61.1089 29.2014 60.359 28.5302 59.7797 28.0943C59.7519 28.0734 59.7244 28.0529 59.6972 28.033C59.7715 27.4873 59.8195 26.769 59.7401 25.9741C59.5603 24.1757 58.7072 21.9379 56.1007 20.5747C54.4628 19.7038 52.5139 19.5512 50.671 19.7004C48.8041 19.8515 46.8824 20.3262 45.1804 20.8707C43.4707 21.4176 41.9349 22.0506 40.8294 22.5448C40.2752 22.7926 39.8257 23.007 39.5125 23.1607C39.3558 23.2376 39.233 23.2994 39.1481 23.3426C39.1056 23.3643 39.0725 23.3813 39.0494 23.3932L39.041 23.3976C38.3372 23.7315 37.535 24.1567 36.7658 24.5655C36.6283 24.2859 36.4355 23.7355 36.2927 22.7219C36.0949 21.3189 36.0145 19.1978 36.1934 16.0386C36.5689 9.40352 34.9975 5.55632 32.4459 3.58184C29.9396 1.64242 26.9652 1.8872 25.3655 2.31585C24.0285 2.67409 23.3471 3.68146 23.0979 4.70889C22.8709 5.64478 22.9708 6.66107 23.1256 7.4786C23.2864 8.32715 23.5402 9.1283 23.7465 9.70414C23.8332 9.94608 23.9135 10.1538 23.9783 10.3154C23.968 10.4218 23.9553 10.5505 23.9402 10.6998C23.8908 11.1853 23.8152 11.8877 23.7107 12.7495C23.5016 14.4747 23.1775 16.8312 22.7182 19.362C22.2581 21.8973 21.6667 24.5814 20.9277 26.9704C20.1785 29.3925 19.318 31.3735 18.3788 32.6035L18.3202 32.6803L18.2719 32.7639C17.2529 34.5288 16.8538 36.349 16.676 37.7218ZM15.3888 44.9478L15.3809 44.9321L15.3725 44.9166C14.482 43.2586 12.4271 42.3239 10.6265 42.6946L10.5833 42.7035L10.5408 42.7149L4.57466 44.3135C2.6549 44.8279 1.43309 46.8718 1.70712 48.7525L1.70717 48.7528L4.7136 69.3578L4.71357 69.3578L4.71499 69.3671C5.0379 71.4873 7.0287 72.7707 9.03787 72.2323L22.9141 68.5142C24.9247 67.9755 26.0188 65.8126 24.9757 63.8458L15.3888 44.9478ZM17.0291 64.0836C16.9381 63.7442 17.1503 63.3768 17.4897 63.2858C17.8291 63.1949 18.1965 63.407 18.2875 63.7464C18.3784 64.0858 18.1662 64.4533 17.8269 64.5442C17.4875 64.6352 17.12 64.423 17.0291 64.0836Z" fill="#C7ED0D" stroke="white" stroke-width="3"/>
</svg>
