<svg width="76" height="85" viewBox="0 0 76 85" fill="none" xmlns="http://www.w3.org/2000/svg">
<path d="M19.8618 41.968L19.8431 41.8238L19.8525 41.6788C19.8639 41.5019 19.8333 41.3464 19.7894 41.2165L19.7681 41.1535L19.7524 41.0888C19.5569 40.2813 19.0968 38.8967 17.7 37.4521L16.9431 36.6693L17.4528 35.7072L31.4788 9.23209L31.9666 8.31122L32.9998 8.4471L32.8042 9.9343C32.9998 8.4471 33 8.44713 33.0002 8.44714L33.0008 8.44722L33.0026 8.44747L33.0092 8.44834L33.0336 8.4516L33.1265 8.46417C33.2076 8.47526 33.3269 8.49175 33.4816 8.5137C33.7911 8.5576 34.2424 8.62335 34.8144 8.71133C35.9583 8.88726 37.5859 9.15222 39.5277 9.50931C43.388 10.2192 48.5114 11.2971 53.5505 12.7697C57.7149 13.5532 62.0508 14.7081 65.4554 16.4101L65.4629 16.4138L65.4704 16.4177C71.2615 19.3939 73.1471 23.0285 73.2731 26.2048C73.3333 27.7226 72.9836 29.0148 72.6279 29.918C72.5467 30.1241 72.4645 30.3119 72.3854 30.4796C74.5756 33.7519 74.5334 36.7696 73.796 39.039C73.4095 40.2289 72.846 41.1763 72.3827 41.825C72.3312 41.8972 72.2807 41.966 72.2316 42.0312C72.9876 43.687 73.27 45.2187 73.1946 46.6164C73.1054 48.2716 72.5203 49.6315 71.801 50.6893C71.0879 51.7381 70.2375 52.4999 69.5785 52.9957C69.5059 53.0503 69.4353 53.102 69.367 53.1507C69.4626 53.786 69.5336 54.6587 69.4364 55.6308C69.2333 57.6637 68.2736 60.1794 65.3344 61.7161C63.4889 62.6975 61.277 62.8766 59.1564 62.7049C57.0116 62.5314 54.7973 61.9852 52.8286 61.3553C50.8522 60.7231 49.0757 59.991 47.796 59.4189C47.1548 59.1322 46.6349 58.8842 46.2731 58.7067C46.0922 58.6178 45.9505 58.5466 45.8528 58.4968C45.8039 58.4719 45.766 58.4524 45.7396 58.4387L45.7262 58.4318C44.885 58.0329 43.9199 57.5198 42.9949 57.0281L42.9737 57.0168L42.8782 56.9661C42.696 57.2397 42.3912 57.9158 42.1818 59.4014C41.9488 61.0543 41.856 63.5375 42.0643 67.2181C42.4989 74.8959 40.676 79.268 37.8024 81.4916C34.974 83.6803 31.607 83.4091 29.7841 82.9206C28.3355 82.5325 27.5957 81.446 27.3218 80.3168C27.0702 79.2791 27.179 78.1383 27.3568 77.2C27.5404 76.2307 27.831 75.3125 28.0684 74.6498C28.1781 74.3435 28.2789 74.0851 28.3568 73.8931C28.3439 73.7584 28.3272 73.5882 28.3066 73.3857C28.2491 72.8199 28.161 72.0018 28.0393 70.9983C27.7958 68.9897 27.4185 66.2454 26.8835 63.2976C26.3476 60.3452 25.6582 57.2147 24.7952 54.4249C23.9219 51.602 22.9116 49.2658 21.7932 47.801L21.7346 47.7242L21.6863 47.6406C20.5238 45.6271 20.0662 43.5463 19.8618 41.968ZM17.9066 33.4894L17.8987 33.505L17.8903 33.5205C16.9067 35.352 14.6258 36.3895 12.6372 35.9801L12.594 35.9712L12.5515 35.9598L5.61631 34.1015C3.51146 33.5375 2.1592 31.2836 2.46105 29.212L2.4611 29.2117L5.95582 5.25992L5.95723 5.25064C6.31089 2.92862 8.48408 1.53074 10.6783 2.11869L26.8084 6.44072C29.0041 7.02907 30.188 9.37942 29.0517 11.5196L17.9066 33.4894ZM19.7952 11.2926C19.6547 11.8171 19.9784 12.3778 20.5029 12.5183C21.0274 12.6588 21.5881 12.3351 21.7287 11.8106C21.8692 11.2861 21.5455 10.7254 21.021 10.5849C20.4965 10.4443 19.9358 10.7681 19.7952 11.2926Z" fill="#FF3D12" stroke="white" stroke-width="3"/>
</svg>
