<svg width="187" height="187" viewBox="0 0 187 187" fill="none" xmlns="http://www.w3.org/2000/svg">
<g filter="url(#filter0_d_401_425)">
<mask id="path-1-outside-1_401_425" maskUnits="userSpaceOnUse" x="14" y="10" width="159" height="159" fill="black">
<rect fill="white" x="14" y="10" width="159" height="159"/>
<path fill-rule="evenodd" clip-rule="evenodd" d="M146.962 30.6923H141.615V25.3462C141.615 23.9283 141.052 22.5685 140.05 21.5659C139.047 20.5633 137.687 20 136.269 20H50.7308C49.3129 20 47.9531 20.5633 46.9505 21.5659C45.9479 22.5685 45.3846 23.9283 45.3846 25.3462V30.6923H40.0385C35.7848 30.6923 31.7054 32.3821 28.6976 35.3899C25.6898 38.3977 24 42.4771 24 46.7308V68.1154C24 72.369 25.6898 76.4485 28.6976 79.4563C31.7054 82.4641 35.7848 84.1538 40.0385 84.1538H53.5589C59.3177 92.7651 67.7001 99.2895 77.4615 102.758V126.923H66.7692C62.5156 126.923 58.4361 128.613 55.4283 131.621C52.4205 134.628 50.7308 138.708 50.7308 142.962C50.7308 147.215 52.4205 151.295 55.4283 154.302C58.4361 157.31 62.5156 159 66.7692 159H120.231C124.484 159 128.564 157.31 131.572 154.302C134.579 151.295 136.269 147.215 136.269 142.962C136.269 138.708 134.579 134.628 131.572 131.621C128.564 128.613 124.484 126.923 120.231 126.923H109.538V102.758C119.3 99.2895 127.682 92.7651 133.441 84.1538H146.962C151.215 84.1538 155.295 82.4641 158.302 79.4563C161.31 76.4485 163 72.369 163 68.1154V46.7308C163 42.4771 161.31 38.3977 158.302 35.3899C155.295 32.3821 151.215 30.6923 146.962 30.6923ZM40.0385 73.4615C38.6206 73.4615 37.2608 72.8983 36.2582 71.8957C35.2556 70.8931 34.6923 69.5333 34.6923 68.1154V46.7308C34.6923 45.3129 35.2556 43.9531 36.2582 42.9505C37.2608 41.9479 38.6206 41.3846 40.0385 41.3846H45.3846V57.4231C45.3889 62.8892 46.331 68.314 48.17 73.4615H40.0385ZM125.577 142.962C125.577 144.379 125.014 145.739 124.011 146.742C123.008 147.744 121.649 148.308 120.231 148.308H66.7692C65.3513 148.308 63.9915 147.744 62.9889 146.742C61.9863 145.739 61.4231 144.379 61.4231 142.962C61.4231 141.544 61.9863 140.184 62.9889 139.181C63.9915 138.179 65.3513 137.615 66.7692 137.615H120.231C121.649 137.615 123.008 138.179 124.011 139.181C125.014 140.184 125.577 141.544 125.577 142.962ZM98.8462 126.923H88.1538V105.218C91.7051 105.645 95.2949 105.645 98.8462 105.218V126.923ZM108.523 91.6919C105.465 93.0656 102.223 93.9842 98.8996 94.4185C95.3225 94.9887 91.6775 94.9887 88.1004 94.4185C84.7768 93.9842 81.5347 93.0656 78.4773 91.6919C71.8211 88.7694 66.159 83.9732 62.1815 77.8883C58.204 71.8034 56.0829 64.6926 56.0769 57.4231V30.6923H130.923V57.4231C130.917 64.6926 128.796 71.8034 124.818 77.8883C120.841 83.9732 115.179 88.7694 108.523 91.6919ZM152.308 68.1154C152.308 69.5333 151.744 70.8931 150.742 71.8957C149.739 72.8983 148.379 73.4615 146.962 73.4615H138.83C140.669 68.314 141.611 62.8892 141.615 57.4231V41.3846H146.962C148.379 41.3846 149.739 41.9479 150.742 42.9505C151.744 43.9531 152.308 45.3129 152.308 46.7308V68.1154ZM104.365 38.498C100.284 38.498 97.74 39.823 96.786 40.406C95.991 39.664 93.712 38.021 89.472 38.021C83.801 38.021 81.098 42.685 80.462 43.957C78.713 44.116 70.869 45.176 70.869 53.391C70.869 60.175 76.593 62.825 79.72 63.09V71.04C79.72 71.358 79.932 71.57 80.25 71.57H104.1C104.418 71.57 104.63 71.358 104.63 71.04V63.09C111.944 62.772 116.343 55.882 116.343 50.9C116.343 42.314 110.354 38.498 104.365 38.498ZM100.125 76.87C102.616 78.248 105.16 79.626 108.287 77.559C108.499 77.453 108.817 77.506 108.976 77.612C109.135 77.718 109.241 77.983 109.135 78.195C108.022 81.004 106.167 82.912 103.676 83.919C102.351 84.449 100.973 84.661 99.701 84.661C98.164 84.661 96.786 84.396 95.779 83.919C94.083 83.124 92.97 82.064 92.44 80.792C91.804 82.435 90.161 83.442 89.101 83.919C88.094 84.343 86.716 84.661 85.179 84.661C83.907 84.661 82.529 84.449 81.204 83.919C78.66 82.912 76.858 80.951 75.745 78.195C75.639 77.983 75.745 77.771 75.904 77.612C76.116 77.453 76.328 77.453 76.54 77.559C79.6462 79.5596 82.1771 78.2132 84.6522 76.8965L84.702 76.87C84.8012 76.8186 84.8998 76.7672 84.998 76.716C86.3166 76.0287 87.5498 75.386 88.783 75.386C90.479 75.386 91.857 76.34 92.44 77.771C92.97 76.34 94.348 75.386 96.044 75.386C97.2772 75.386 98.5104 76.0287 99.829 76.716C99.9272 76.7672 100.026 76.8186 100.125 76.87Z"/>
</mask>
<path fill-rule="evenodd" clip-rule="evenodd" d="M146.962 30.6923H141.615V25.3462C141.615 23.9283 141.052 22.5685 140.05 21.5659C139.047 20.5633 137.687 20 136.269 20H50.7308C49.3129 20 47.9531 20.5633 46.9505 21.5659C45.9479 22.5685 45.3846 23.9283 45.3846 25.3462V30.6923H40.0385C35.7848 30.6923 31.7054 32.3821 28.6976 35.3899C25.6898 38.3977 24 42.4771 24 46.7308V68.1154C24 72.369 25.6898 76.4485 28.6976 79.4563C31.7054 82.4641 35.7848 84.1538 40.0385 84.1538H53.5589C59.3177 92.7651 67.7001 99.2895 77.4615 102.758V126.923H66.7692C62.5156 126.923 58.4361 128.613 55.4283 131.621C52.4205 134.628 50.7308 138.708 50.7308 142.962C50.7308 147.215 52.4205 151.295 55.4283 154.302C58.4361 157.31 62.5156 159 66.7692 159H120.231C124.484 159 128.564 157.31 131.572 154.302C134.579 151.295 136.269 147.215 136.269 142.962C136.269 138.708 134.579 134.628 131.572 131.621C128.564 128.613 124.484 126.923 120.231 126.923H109.538V102.758C119.3 99.2895 127.682 92.7651 133.441 84.1538H146.962C151.215 84.1538 155.295 82.4641 158.302 79.4563C161.31 76.4485 163 72.369 163 68.1154V46.7308C163 42.4771 161.31 38.3977 158.302 35.3899C155.295 32.3821 151.215 30.6923 146.962 30.6923ZM40.0385 73.4615C38.6206 73.4615 37.2608 72.8983 36.2582 71.8957C35.2556 70.8931 34.6923 69.5333 34.6923 68.1154V46.7308C34.6923 45.3129 35.2556 43.9531 36.2582 42.9505C37.2608 41.9479 38.6206 41.3846 40.0385 41.3846H45.3846V57.4231C45.3889 62.8892 46.331 68.314 48.17 73.4615H40.0385ZM125.577 142.962C125.577 144.379 125.014 145.739 124.011 146.742C123.008 147.744 121.649 148.308 120.231 148.308H66.7692C65.3513 148.308 63.9915 147.744 62.9889 146.742C61.9863 145.739 61.4231 144.379 61.4231 142.962C61.4231 141.544 61.9863 140.184 62.9889 139.181C63.9915 138.179 65.3513 137.615 66.7692 137.615H120.231C121.649 137.615 123.008 138.179 124.011 139.181C125.014 140.184 125.577 141.544 125.577 142.962ZM98.8462 126.923H88.1538V105.218C91.7051 105.645 95.2949 105.645 98.8462 105.218V126.923ZM108.523 91.6919C105.465 93.0656 102.223 93.9842 98.8996 94.4185C95.3225 94.9887 91.6775 94.9887 88.1004 94.4185C84.7768 93.9842 81.5347 93.0656 78.4773 91.6919C71.8211 88.7694 66.159 83.9732 62.1815 77.8883C58.204 71.8034 56.0829 64.6926 56.0769 57.4231V30.6923H130.923V57.4231C130.917 64.6926 128.796 71.8034 124.818 77.8883C120.841 83.9732 115.179 88.7694 108.523 91.6919ZM152.308 68.1154C152.308 69.5333 151.744 70.8931 150.742 71.8957C149.739 72.8983 148.379 73.4615 146.962 73.4615H138.83C140.669 68.314 141.611 62.8892 141.615 57.4231V41.3846H146.962C148.379 41.3846 149.739 41.9479 150.742 42.9505C151.744 43.9531 152.308 45.3129 152.308 46.7308V68.1154ZM104.365 38.498C100.284 38.498 97.74 39.823 96.786 40.406C95.991 39.664 93.712 38.021 89.472 38.021C83.801 38.021 81.098 42.685 80.462 43.957C78.713 44.116 70.869 45.176 70.869 53.391C70.869 60.175 76.593 62.825 79.72 63.09V71.04C79.72 71.358 79.932 71.57 80.25 71.57H104.1C104.418 71.57 104.63 71.358 104.63 71.04V63.09C111.944 62.772 116.343 55.882 116.343 50.9C116.343 42.314 110.354 38.498 104.365 38.498ZM100.125 76.87C102.616 78.248 105.16 79.626 108.287 77.559C108.499 77.453 108.817 77.506 108.976 77.612C109.135 77.718 109.241 77.983 109.135 78.195C108.022 81.004 106.167 82.912 103.676 83.919C102.351 84.449 100.973 84.661 99.701 84.661C98.164 84.661 96.786 84.396 95.779 83.919C94.083 83.124 92.97 82.064 92.44 80.792C91.804 82.435 90.161 83.442 89.101 83.919C88.094 84.343 86.716 84.661 85.179 84.661C83.907 84.661 82.529 84.449 81.204 83.919C78.66 82.912 76.858 80.951 75.745 78.195C75.639 77.983 75.745 77.771 75.904 77.612C76.116 77.453 76.328 77.453 76.54 77.559C79.6462 79.5596 82.1771 78.2132 84.6522 76.8965L84.702 76.87C84.8012 76.8186 84.8998 76.7672 84.998 76.716C86.3166 76.0287 87.5498 75.386 88.783 75.386C90.479 75.386 91.857 76.34 92.44 77.771C92.97 76.34 94.348 75.386 96.044 75.386C97.2772 75.386 98.5104 76.0287 99.829 76.716C99.9272 76.7672 100.026 76.8186 100.125 76.87Z" fill="#F3CE6D"/>
<path d="M141.615 30.6923H131.615V40.6923H141.615V30.6923ZM140.05 21.5659L147.121 14.4948L147.121 14.4948L140.05 21.5659ZM45.3846 30.6923V40.6923H55.3846V30.6923H45.3846ZM28.6976 35.3899L35.7686 42.4609L35.7686 42.4609L28.6976 35.3899ZM28.6976 79.4563L21.6265 86.5274H21.6265L28.6976 79.4563ZM53.5589 84.1538L61.8714 78.5948L58.9014 74.1538H53.5589V84.1538ZM77.4615 102.758H87.4615V95.6995L80.8101 93.3358L77.4615 102.758ZM77.4615 126.923V136.923H87.4615V126.923H77.4615ZM131.572 154.302L124.501 147.231L124.501 147.231L131.572 154.302ZM131.572 131.621L124.501 138.692L124.501 138.692L131.572 131.621ZM109.538 126.923H99.5385V136.923H109.538V126.923ZM109.538 102.758L106.19 93.3358L99.5385 95.6995V102.758H109.538ZM133.441 84.1538V74.1538H128.099L125.129 78.5948L133.441 84.1538ZM158.302 79.4563L165.374 86.5274L165.374 86.5274L158.302 79.4563ZM158.302 35.3899L151.231 42.4609L158.302 35.3899ZM36.2582 71.8957L29.1871 78.9668L29.1871 78.9668L36.2582 71.8957ZM36.2582 42.9505L29.1871 35.8794L29.1871 35.8794L36.2582 42.9505ZM45.3846 41.3846H55.3846V31.3846H45.3846V41.3846ZM45.3846 57.4231H35.3846L35.3846 57.4309L45.3846 57.4231ZM48.17 73.4615V83.4615H62.3615L57.5871 70.0973L48.17 73.4615ZM62.9889 146.742L55.9178 153.813L55.9179 153.813L62.9889 146.742ZM62.9889 139.181L55.9179 132.11L55.9178 132.11L62.9889 139.181ZM88.1538 126.923H78.1538V136.923H88.1538V126.923ZM98.8462 126.923V136.923H108.846V126.923H98.8462ZM88.1538 105.218L89.3496 95.2894L78.1538 93.9411V105.218H88.1538ZM98.8462 105.218H108.846V93.9411L97.6504 95.2894L98.8462 105.218ZM98.8996 94.4185L97.6041 84.5027L97.4645 84.521L97.3254 84.5431L98.8996 94.4185ZM108.523 91.6919L104.502 82.5356L104.463 82.5528L104.424 82.5703L108.523 91.6919ZM88.1004 94.4185L89.6746 84.5431L89.5355 84.521L89.3959 84.5027L88.1004 94.4185ZM78.4773 91.6919L82.5757 82.5703L82.5367 82.5528L82.4976 82.5356L78.4773 91.6919ZM56.0769 57.4231H46.0769L46.0769 57.4314L56.0769 57.4231ZM56.0769 30.6923V20.6923H46.0769V30.6923H56.0769ZM130.923 30.6923H140.923V20.6923H130.923V30.6923ZM130.923 57.4231L140.923 57.4314V57.4231H130.923ZM124.818 77.8883L116.448 72.4169L116.448 72.4169L124.818 77.8883ZM150.742 71.8957L157.813 78.9668L157.813 78.9667L150.742 71.8957ZM138.83 73.4615L129.413 70.0973L124.639 83.4615H138.83V73.4615ZM141.615 57.4231L151.615 57.4309V57.4231H141.615ZM141.615 41.3846V31.3846H131.615V41.3846H141.615ZM150.742 42.9505L157.813 35.8794L157.813 35.8794L150.742 42.9505ZM96.786 40.406L89.9628 47.7165L95.5173 52.9008L102 48.9388L96.786 40.406ZM80.462 43.957L81.3674 53.9159L86.9151 53.4116L89.4063 48.4291L80.462 43.957ZM79.72 63.09H89.72V53.9016L80.5644 53.1257L79.72 63.09ZM104.63 63.09L104.196 53.0994L94.63 53.5153V63.09H104.63ZM108.287 77.559L103.815 68.6147L103.276 68.8843L102.773 69.2168L108.287 77.559ZM100.125 76.87L104.966 68.1197L104.848 68.0544L104.728 67.9924L100.125 76.87ZM108.976 77.612L114.523 69.2916L114.523 69.2914L108.976 77.612ZM109.135 78.195L100.191 73.7227L99.9974 74.1094L99.8382 74.5114L109.135 78.195ZM103.676 83.919L107.39 93.2038L107.407 93.197L107.424 93.1901L103.676 83.919ZM95.779 83.919L100.06 74.8816L100.042 74.873L100.023 74.8644L95.779 83.919ZM92.44 80.792L101.671 76.9458L92.0985 53.9726L83.1143 77.1821L92.44 80.792ZM89.101 83.919L92.9816 93.1354L93.0937 93.0881L93.2047 93.0382L89.101 83.919ZM81.204 83.919L84.9179 74.6342L84.9012 74.6276L84.8845 74.6209L81.204 83.919ZM75.745 78.195L85.0174 74.4504L84.8679 74.0801L84.6893 73.7229L75.745 78.195ZM75.904 77.612L69.904 69.612L69.3355 70.0384L68.8329 70.5409L75.904 77.612ZM76.54 77.559L81.9548 69.1519L81.498 68.8577L81.0121 68.6147L76.54 77.559ZM84.6522 76.8965L79.9557 68.068L79.9557 68.068L84.6522 76.8965ZM84.702 76.87L80.0989 67.9924L80.0521 68.0167L80.0055 68.0415L84.702 76.87ZM84.998 76.716L80.3761 67.8482L80.376 67.8482L84.998 76.716ZM92.44 77.771L83.1791 81.5439L92.8838 105.365L101.817 81.2442L92.44 77.771ZM99.829 76.716L104.451 67.8482L104.451 67.8482L99.829 76.716ZM141.615 40.6923H146.962V20.6923H141.615V40.6923ZM131.615 25.3462V30.6923H151.615V25.3462H131.615ZM132.978 28.6369C132.106 27.7641 131.615 26.5804 131.615 25.3462H151.615C151.615 21.2761 149.999 17.3728 147.121 14.4948L132.978 28.6369ZM136.269 30C135.035 30 133.851 29.5097 132.978 28.6369L147.121 14.4948C144.243 11.6168 140.339 10 136.269 10V30ZM50.7308 30H136.269V10H50.7308V30ZM54.0215 28.6369C53.1488 29.5097 51.965 30 50.7308 30V10C46.6607 10 42.7574 11.6168 39.8794 14.4948L54.0215 28.6369ZM55.3846 25.3462C55.3846 26.5804 54.8943 27.7642 54.0215 28.6369L39.8794 14.4948C37.0014 17.3727 35.3846 21.2761 35.3846 25.3462H55.3846ZM55.3846 30.6923V25.3462H35.3846V30.6923H55.3846ZM40.0385 40.6923H45.3846V20.6923H40.0385V40.6923ZM35.7686 42.4609C36.9011 41.3285 38.437 40.6923 40.0385 40.6923V20.6923C33.1326 20.6923 26.5096 23.4356 21.6265 28.3188L35.7686 42.4609ZM34 46.7308C34 45.1293 34.6362 43.5934 35.7686 42.4609L21.6265 28.3188C16.7433 33.202 14 39.8249 14 46.7308H34ZM34 68.1154V46.7308H14V68.1154H34ZM35.7686 72.3852C34.6362 71.2528 34 69.7169 34 68.1154H14C14 75.0212 16.7433 81.6442 21.6265 86.5274L35.7686 72.3852ZM40.0385 74.1538C38.437 74.1538 36.9011 73.5177 35.7686 72.3852L21.6265 86.5274C26.5096 91.4105 33.1326 94.1538 40.0385 94.1538V74.1538ZM53.5589 74.1538H40.0385V94.1538H53.5589V74.1538ZM80.8101 93.3358C73.0759 90.5872 66.4342 85.4177 61.8714 78.5948L45.2464 89.7129C52.2012 100.112 62.3244 107.992 74.113 112.181L80.8101 93.3358ZM87.4615 126.923V102.758H67.4615V126.923H87.4615ZM66.7692 136.923H77.4615V116.923H66.7692V136.923ZM62.4994 138.692C63.6318 137.559 65.1677 136.923 66.7692 136.923V116.923C59.8634 116.923 53.2404 119.666 48.3573 124.55L62.4994 138.692ZM60.7308 142.962C60.7308 141.36 61.367 139.824 62.4994 138.692L48.3573 124.55C43.4741 129.433 40.7308 136.056 40.7308 142.962H60.7308ZM62.4994 147.231C61.367 146.099 60.7308 144.563 60.7308 142.962H40.7308C40.7308 149.867 43.4741 156.49 48.3573 161.374L62.4994 147.231ZM66.7692 149C65.1677 149 63.6318 148.364 62.4994 147.231L48.3573 161.374C53.2404 166.257 59.8634 169 66.7692 169V149ZM120.231 149H66.7692V169H120.231V149ZM124.501 147.231C123.368 148.364 121.832 149 120.231 149V169C127.137 169 133.76 166.257 138.643 161.374L124.501 147.231ZM126.269 142.962C126.269 144.563 125.633 146.099 124.501 147.231L138.643 161.374C143.526 156.49 146.269 149.867 146.269 142.962H126.269ZM124.501 138.692C125.633 139.824 126.269 141.36 126.269 142.962H146.269C146.269 136.056 143.526 129.433 138.643 124.55L124.501 138.692ZM120.231 136.923C121.832 136.923 123.368 137.559 124.501 138.692L138.643 124.55C133.76 119.666 127.137 116.923 120.231 116.923V136.923ZM109.538 136.923H120.231V116.923H109.538V136.923ZM99.5385 102.758V126.923H119.538V102.758H99.5385ZM125.129 78.5948C120.566 85.4177 113.924 90.5872 106.19 93.3358L112.887 112.181C124.676 107.992 134.799 100.112 141.754 89.7129L125.129 78.5948ZM146.962 74.1538H133.441V94.1538H146.962V74.1538ZM151.231 72.3852C150.099 73.5177 148.563 74.1538 146.962 74.1538V94.1538C153.867 94.1538 160.49 91.4105 165.374 86.5274L151.231 72.3852ZM153 68.1154C153 69.7169 152.364 71.2528 151.231 72.3852L165.374 86.5274C170.257 81.6442 173 75.0212 173 68.1154H153ZM153 46.7308V68.1154H173V46.7308H153ZM151.231 42.4609C152.364 43.5934 153 45.1293 153 46.7308H173C173 39.8249 170.257 33.202 165.374 28.3188L151.231 42.4609ZM146.962 40.6923C148.563 40.6923 150.099 41.3285 151.231 42.4609L165.374 28.3188C160.49 23.4356 153.867 20.6923 146.962 20.6923V40.6923ZM29.1871 78.9668C32.0651 81.8447 35.9684 83.4615 40.0385 83.4615V63.4615C41.2727 63.4615 42.4565 63.9519 43.3292 64.8246L29.1871 78.9668ZM24.6923 68.1154C24.6923 72.1854 26.3091 76.0888 29.1871 78.9668L43.3292 64.8246C44.202 65.6974 44.6923 66.8811 44.6923 68.1154H24.6923ZM24.6923 46.7308V68.1154H44.6923V46.7308H24.6923ZM29.1871 35.8794C26.3091 38.7574 24.6923 42.6607 24.6923 46.7308H44.6923C44.6923 47.9651 44.202 49.1488 43.3292 50.0215L29.1871 35.8794ZM40.0385 31.3846C35.9684 31.3846 32.0651 33.0014 29.1871 35.8794L43.3292 50.0215C42.4565 50.8943 41.2727 51.3846 40.0385 51.3846V31.3846ZM45.3846 31.3846H40.0385V51.3846H45.3846V31.3846ZM55.3846 57.4231V41.3846H35.3846V57.4231H55.3846ZM57.5871 70.0973C56.1329 66.027 55.388 61.7374 55.3846 57.4153L35.3846 57.4309C35.3898 64.0409 36.5291 70.6011 38.7529 76.8258L57.5871 70.0973ZM40.0385 83.4615H48.17V63.4615H40.0385V83.4615ZM131.082 153.813C133.96 150.935 135.577 147.032 135.577 142.962H115.577C115.577 141.727 116.067 140.544 116.94 139.671L131.082 153.813ZM120.231 158.308C124.301 158.308 128.204 156.691 131.082 153.813L116.94 139.671C117.813 138.798 118.997 138.308 120.231 138.308V158.308ZM66.7692 158.308H120.231V138.308H66.7692V158.308ZM55.9179 153.813C58.7958 156.691 62.6992 158.308 66.7692 158.308V138.308C68.0035 138.308 69.1872 138.798 70.06 139.671L55.9179 153.813ZM51.4231 142.962C51.4231 147.032 53.0399 150.935 55.9178 153.813L70.06 139.671C70.9328 140.544 71.4231 141.727 71.4231 142.962H51.4231ZM55.9178 132.11C53.0399 134.988 51.4231 138.891 51.4231 142.962H71.4231C71.4231 144.196 70.9328 145.38 70.06 146.252L55.9178 132.11ZM66.7692 127.615C62.6992 127.615 58.7958 129.232 55.9179 132.11L70.06 146.252C69.1872 147.125 68.0035 147.615 66.7692 147.615V127.615ZM120.231 127.615H66.7692V147.615H120.231V127.615ZM131.082 132.11C128.204 129.232 124.301 127.615 120.231 127.615V147.615C118.997 147.615 117.813 147.125 116.94 146.252L131.082 132.11ZM135.577 142.962C135.577 138.892 133.96 134.988 131.082 132.11L116.94 146.252C116.067 145.38 115.577 144.196 115.577 142.962H135.577ZM88.1538 136.923H98.8462V116.923H88.1538V136.923ZM78.1538 105.218V126.923H98.1538V105.218H78.1538ZM97.6504 95.2894C94.8934 95.6215 92.1066 95.6215 89.3496 95.2894L86.9581 115.146C91.3037 115.669 95.6963 115.669 100.042 115.146L97.6504 95.2894ZM108.846 126.923V105.218H88.8462V126.923H108.846ZM100.195 104.334C104.487 103.773 108.673 102.587 112.621 100.813L104.424 82.5703C102.257 83.5439 99.9596 84.195 97.6041 84.5027L100.195 104.334ZM86.5262 104.294C91.1462 105.03 95.8538 105.03 100.474 104.294L97.3254 84.5431C94.7911 84.9471 92.2089 84.9471 89.6746 84.5431L86.5262 104.294ZM74.3789 100.813C78.3268 102.587 82.5132 103.773 86.8049 104.334L89.3959 84.5027C87.0404 84.195 84.7426 83.5439 82.5757 82.5703L74.3789 100.813ZM53.8111 83.3598C58.8504 91.069 66.024 97.1455 74.457 100.848L82.4976 82.5356C77.6182 80.3932 73.4676 76.8774 70.5519 72.4169L53.8111 83.3598ZM46.0769 57.4314C46.0846 66.6415 48.7718 75.6505 53.8111 83.3598L70.5519 72.4169C67.6362 67.9563 66.0813 62.7438 66.0769 57.4148L46.0769 57.4314ZM46.0769 30.6923V57.4231H66.0769V30.6923H46.0769ZM130.923 20.6923H56.0769V40.6923H130.923V20.6923ZM140.923 57.4231V30.6923H120.923V57.4231H140.923ZM133.189 83.3598C138.228 75.6505 140.915 66.6415 140.923 57.4314L120.923 57.4148C120.919 62.7438 119.364 67.9563 116.448 72.4169L133.189 83.3598ZM112.543 100.848C120.976 97.1455 128.15 91.069 133.189 83.3597L116.448 72.4169C113.532 76.8774 109.382 80.3932 104.502 82.5356L112.543 100.848ZM157.813 78.9667C160.691 76.0888 162.308 72.1854 162.308 68.1154H142.308C142.308 66.8811 142.798 65.6974 143.671 64.8246L157.813 78.9667ZM146.962 83.4615C151.032 83.4615 154.935 81.8447 157.813 78.9668L143.671 64.8246C144.544 63.9519 145.727 63.4615 146.962 63.4615V83.4615ZM138.83 83.4615H146.962V63.4615H138.83V83.4615ZM131.615 57.4153C131.612 61.7374 130.867 66.027 129.413 70.0973L148.247 76.8258C150.471 70.6011 151.61 64.0409 151.615 57.4309L131.615 57.4153ZM131.615 41.3846V57.4231H151.615V41.3846H131.615ZM146.962 31.3846H141.615V51.3846H146.962V31.3846ZM157.813 35.8794C154.935 33.0014 151.032 31.3846 146.962 31.3846V51.3846C145.727 51.3846 144.544 50.8943 143.671 50.0215L157.813 35.8794ZM162.308 46.7308C162.308 42.6607 160.691 38.7574 157.813 35.8794L143.671 50.0215C142.798 49.1488 142.308 47.9651 142.308 46.7308H162.308ZM162.308 68.1154V46.7308H142.308V68.1154H162.308ZM102 48.9388C101.947 48.9715 102.093 48.8718 102.445 48.7594C102.795 48.6476 103.426 48.498 104.365 48.498V28.498C97.9911 28.498 93.6582 30.598 91.5715 31.8732L102 48.9388ZM89.472 48.021C89.8818 48.021 90.1574 48.0602 90.3173 48.0925C90.399 48.1089 90.4571 48.1248 90.4935 48.1361C90.53 48.1473 90.5481 48.1549 90.5494 48.1554C90.5515 48.1563 90.3387 48.0673 89.9628 47.7165L103.609 33.0955C101.2 30.847 96.5523 28.021 89.472 28.021V48.021ZM89.4063 48.4291C89.3952 48.4514 89.4392 48.3613 89.5319 48.229C89.5761 48.1659 89.6234 48.1046 89.6712 48.0491C89.7192 47.9935 89.7595 47.9531 89.7889 47.9266C89.8495 47.8717 89.8289 47.9057 89.7185 47.9533C89.6626 47.9774 89.6011 47.9971 89.5419 48.0096C89.4816 48.0223 89.454 48.021 89.472 48.021V28.021C77.5953 28.021 72.3917 37.7369 71.5177 39.4849L89.4063 48.4291ZM80.869 53.391C80.869 53.1653 80.8951 53.1231 80.8705 53.215C80.8446 53.3121 80.7847 53.4741 80.6714 53.6607C80.4334 54.053 80.173 54.2168 80.1661 54.221C80.1652 54.2215 80.1771 54.2144 80.2036 54.2015C80.2301 54.1886 80.2677 54.1718 80.3171 54.1523C80.4192 54.1122 80.5468 54.0709 80.6948 54.0332C81.0012 53.9551 81.2608 53.9256 81.3674 53.9159L79.5567 33.9981C78.2178 34.1198 73.994 34.5929 69.8532 37.085C65.0835 39.9555 60.869 45.3164 60.869 53.391H80.869ZM80.5644 53.1257C80.6523 53.1332 80.7139 53.1421 80.7496 53.148C80.7859 53.1541 80.8054 53.1587 80.8096 53.1598C80.8147 53.161 80.7877 53.1544 80.7412 53.1358C80.6958 53.1176 80.6536 53.0966 80.6202 53.0769C80.5873 53.0575 80.5774 53.048 80.5863 53.0555C80.5963 53.0639 80.6295 53.0937 80.6738 53.1494C80.7197 53.2072 80.7679 53.281 80.809 53.3656C80.8508 53.4518 80.8701 53.5184 80.8768 53.548C80.8832 53.5765 80.869 53.5312 80.869 53.391H60.869C60.869 59.9792 63.7968 65.0437 67.6575 68.3148C71.1924 71.3098 75.4151 72.761 78.8756 73.0543L80.5644 53.1257ZM89.72 71.04V63.09H69.72V71.04H89.72ZM80.25 61.57C82.3635 61.57 84.9018 62.3181 86.9368 64.3532C88.9718 66.3882 89.72 68.9265 89.72 71.04H69.72C69.72 73.4715 70.5742 76.2748 72.7947 78.4953C75.0152 80.7159 77.8185 81.57 80.25 81.57V61.57ZM104.1 61.57H80.25V81.57H104.1V61.57ZM94.63 71.04C94.63 68.9265 95.3782 66.3882 97.4132 64.3531C99.4482 62.3181 101.987 61.57 104.1 61.57V81.57C106.532 81.57 109.335 80.7159 111.555 78.4954C113.776 76.2748 114.63 73.4715 114.63 71.04H94.63ZM94.63 63.09V71.04H114.63V63.09H94.63ZM106.343 50.9C106.343 50.7251 106.369 50.8581 106.224 51.2307C106.088 51.5802 105.869 51.9608 105.589 52.2922C105.051 52.9293 104.594 53.0821 104.196 53.0994L105.064 73.0806C111.98 72.7799 117.38 69.3287 120.87 65.1958C124.21 61.2403 126.343 56.042 126.343 50.9H106.343ZM104.365 48.498C105.33 48.498 105.797 48.8104 105.899 48.9024C105.936 48.9357 106.007 49.0037 106.089 49.2007C106.176 49.4096 106.343 49.9263 106.343 50.9H126.343C126.343 44.1045 123.878 38.1882 119.3 34.0561C114.911 30.0936 109.389 28.498 104.365 28.498V48.498ZM102.773 69.2168C102.962 69.0915 103.426 68.8392 104.127 68.7023C104.832 68.5648 105.448 68.6076 105.863 68.6877C106.225 68.7576 106.359 68.8416 106.159 68.7505C105.928 68.6452 105.63 68.4873 104.966 68.1197L95.2844 85.6203C96.2724 86.1669 98.9119 87.715 102.072 88.3251C105.922 89.0684 110.009 88.4082 113.801 85.9012L102.773 69.2168ZM114.523 69.2914C112.783 68.1318 111.012 67.6992 109.698 67.5609C108.373 67.4215 106.162 67.441 103.815 68.6147L112.759 86.5033C110.624 87.571 108.678 87.564 107.605 87.4511C106.543 87.3393 105.01 86.9862 103.429 85.9326L114.523 69.2914ZM118.079 82.6673C119.512 79.8019 119.342 76.9358 118.7 74.881C118.09 72.9316 116.784 70.7989 114.523 69.2916L103.429 85.9324C101.327 84.5311 100.153 82.5839 99.6101 80.8465C99.0342 79.0037 98.864 76.3761 100.191 73.7227L118.079 82.6673ZM107.424 93.1901C112.685 91.0631 116.408 86.9855 118.432 81.8786L99.8382 74.5114C99.7677 74.6892 99.7119 74.7863 99.6881 74.8243C99.6654 74.8606 99.6675 74.8501 99.7024 74.8137C99.7381 74.7764 99.7865 74.7346 99.8413 74.6978C99.8953 74.6614 99.9297 74.6472 99.9281 74.6479L107.424 93.1901ZM99.701 94.661C102.05 94.661 104.715 94.2738 107.39 93.2038L99.9621 74.6342C99.9814 74.6265 99.9673 74.6344 99.9141 74.6439C99.8598 74.6536 99.7861 74.661 99.701 74.661V94.661ZM91.4981 92.9564C94.2253 94.2482 97.174 94.661 99.701 94.661V74.661C99.4948 74.661 99.3951 74.6422 99.4079 74.6446C99.418 74.6466 99.4762 74.658 99.5771 74.6895C99.6763 74.7204 99.8427 74.7788 100.06 74.8816L91.4981 92.9564ZM83.2092 84.6382C84.9645 88.8507 88.3111 91.4625 91.5347 92.9736L100.023 74.8644C99.8549 74.7855 100.976 75.2773 101.671 76.9458L83.2092 84.6382ZM93.2047 93.0382C94.8662 92.2905 99.6509 89.8651 101.766 84.4019L83.1143 77.1821C83.5928 75.946 84.303 75.2969 84.5438 75.0971C84.7961 74.8878 84.9539 74.8194 84.9973 74.7998L93.2047 93.0382ZM85.179 94.661C88.0233 94.661 90.7229 94.0864 92.9816 93.1354L85.2204 74.7027C85.264 74.6843 85.2984 74.6712 85.3232 74.6623C85.3482 74.6533 85.366 74.6477 85.3764 74.6445C85.3963 74.6385 85.3961 74.6395 85.3776 74.6432C85.3595 74.6468 85.3311 74.6515 85.2945 74.6552C85.2582 74.6589 85.2191 74.661 85.179 74.661V94.661ZM77.4901 93.2038C80.1651 94.2738 82.8302 94.661 85.179 94.661V74.661C85.0939 74.661 85.0202 74.6536 84.9659 74.6439C84.9127 74.6344 84.8986 74.6265 84.9179 74.6342L77.4901 93.2038ZM66.4726 81.9396C68.4316 86.7904 72.0208 91.0389 77.5235 93.2171L84.8845 74.6209C84.9108 74.6313 84.9693 74.6584 85.0422 74.7078C85.1151 74.7572 85.1713 74.8078 85.2066 74.8452C85.2404 74.8809 85.2351 74.8833 85.2012 74.8288C85.1661 74.7724 85.0993 74.6532 85.0174 74.4504L66.4726 81.9396ZM68.8329 70.5409C67.7001 71.6737 63.7241 76.5139 66.8007 82.6671L84.6893 73.7229C85.9689 76.2821 85.9079 78.9581 85.212 81.0459C84.6006 82.88 83.5888 84.0693 82.9751 84.6831L68.8329 70.5409ZM81.0121 68.6147C79.7143 67.9658 77.8501 67.3649 75.5983 67.5056C73.2842 67.6502 71.3472 68.5296 69.904 69.612L81.904 85.612C80.6728 86.5354 78.9478 87.3353 76.8457 87.4667C74.8059 87.5941 73.1537 87.0462 72.0679 86.5033L81.0121 68.6147ZM79.9557 68.068C79.2795 68.4277 78.9793 68.5823 78.7351 68.6902C78.5252 68.783 78.6421 68.7086 78.978 68.6452C79.3639 68.5724 79.9485 68.5305 80.6247 68.6582C81.3008 68.7858 81.7566 69.0242 81.9548 69.1519L71.1252 85.9662C74.9055 88.4009 78.9306 89.0074 82.6876 88.2982C85.7809 87.7143 88.3924 86.2338 89.3488 85.725L79.9557 68.068ZM80.0055 68.0415L79.9557 68.068L89.3488 85.725L89.3985 85.6985L80.0055 68.0415ZM80.376 67.8482C80.2765 67.9001 80.1871 67.9467 80.0989 67.9924L89.3051 85.7476C89.4152 85.6905 89.5232 85.6342 89.62 85.5837L80.376 67.8482ZM88.783 65.386C84.6069 65.386 81.0439 67.5001 80.3761 67.8482L89.6199 85.5838C89.9705 85.4011 90.1826 85.2911 90.3713 85.1987C90.5503 85.111 90.6051 85.0906 90.5811 85.1C90.5553 85.1101 90.381 85.1779 90.0917 85.2442C89.7946 85.3123 89.3462 85.386 88.783 85.386V65.386ZM101.701 73.9981C99.5454 68.707 94.4416 65.386 88.783 65.386V85.386C86.5164 85.386 84.1686 83.973 83.1791 81.5439L101.701 73.9981ZM96.044 65.386C90.454 65.386 85.1434 68.6794 83.0625 74.2978L101.817 81.2442C100.797 84.0006 98.242 85.386 96.044 85.386V65.386ZM104.451 67.8482C103.783 67.5001 100.22 65.386 96.044 65.386V85.386C95.4807 85.386 95.0324 85.3123 94.7354 85.2442C94.446 85.1779 94.2717 85.1101 94.2459 85.1C94.2219 85.0906 94.2768 85.111 94.4557 85.1987C94.6444 85.2911 94.8565 85.4011 95.2071 85.5838L104.451 67.8482ZM104.728 67.9924C104.64 67.9467 104.551 67.9001 104.451 67.8482L95.207 85.5838C95.3038 85.6342 95.4118 85.6905 95.5219 85.7476L104.728 67.9924Z" fill="white" mask="url(#path-1-outside-1_401_425)"/>
</g>
<defs>
<filter id="filter0_d_401_425" x="0" y="0" width="187" height="187" filterUnits="userSpaceOnUse" color-interpolation-filters="sRGB">
<feFlood flood-opacity="0" result="BackgroundImageFix"/>
<feColorMatrix in="SourceAlpha" type="matrix" values="0 0 0 0 0 0 0 0 0 0 0 0 0 0 0 0 0 0 127 0" result="hardAlpha"/>
<feOffset dy="4"/>
<feGaussianBlur stdDeviation="7"/>
<feComposite in2="hardAlpha" operator="out"/>
<feColorMatrix type="matrix" values="0 0 0 0 0 0 0 0 0 0 0 0 0 0 0 0 0 0 0.05 0"/>
<feBlend mode="normal" in2="BackgroundImageFix" result="effect1_dropShadow_401_425"/>
<feBlend mode="normal" in="SourceGraphic" in2="effect1_dropShadow_401_425" result="shape"/>
</filter>
</defs>
</svg>
